<svg id="Layer_1" data-name="Layer 1" xmlns="http://www.w3.org/2000/svg" viewBox="0 0 1366 768"><defs><style>.cls-1{fill:#fff;}.cls-2{fill:#00309b;}</style></defs><title>hamburger</title><path class="cls-1" d="M1002.91,615.23h-99V590.9l13.26-23,23-13.26h26.52l23,13.26,13.26,23Zm-97-2h95v-21.8l-12.73-22-22-12.73H940.69l-22,12.73-12.72,22Z"/><polygon class="cls-2" points="954.71 606.08 917.9 569.27 918.87 568.3 952.05 601.47 939.9 556.16 941.24 555.8 954.71 606.08"/><polygon class="cls-1" points="956.64 609.43 916.48 569.27 918.87 566.88 950.11 598.13 938.68 555.45 941.94 554.58 956.64 609.43"/><polygon class="cls-2" points="952.05 606.08 965.52 555.8 966.85 556.16 954.71 601.47 987.88 568.3 988.86 569.27 952.05 606.08"/><polygon class="cls-1" points="950.11 609.43 964.81 554.58 968.08 555.45 956.64 598.13 987.88 566.88 990.27 569.27 950.11 609.43"/><polygon class="cls-2" points="1001 617.25 950.71 603.78 1001 590.3 1001.35 591.63 956.04 603.78 1001.35 615.92 1001 617.25"/><polygon class="cls-1" points="1001.71 618.48 946.85 603.78 1001.71 589.08 1002.58 592.34 959.9 603.78 1002.58 615.21 1001.71 618.48"/><polygon class="cls-2" points="905.76 617.25 905.4 615.92 950.71 603.78 905.4 591.63 905.76 590.3 956.04 603.78 905.76 617.25"/><polygon class="cls-1" points="905.05 618.48 904.17 615.21 946.85 603.78 904.17 592.34 905.05 589.08 959.9 603.78 905.05 618.48"/><rect class="cls-1" x="889" y="611.81" width="128.6" height="13.48" rx="6.74"/><path class="cls-1" d="M953.42,587.88h0a10.3,10.3,0,0,1,10.3,10.3v12.67a0,0,0,0,1,0,0H943.12a0,0,0,0,1,0,0V598.17A10.3,10.3,0,0,1,953.42,587.88Z"/><path class="cls-2" d="M964.71,611.84H942.12V598.17a11.3,11.3,0,0,1,22.59,0Zm-20.59-2h18.59V598.17a9.3,9.3,0,0,0-18.59,0Z"/></svg>