<svg id="Layer_1" data-name="Layer 1" xmlns="http://www.w3.org/2000/svg" viewBox="0 0 128.6 70.71"><defs><style>.cls-1{fill:#fff;}.cls-2{fill:#00309b;}</style></defs><title>hamburger_01</title><path class="cls-1" d="M1002.91,615.23h-99V590.9l13.26-23,23-13.26h26.52l23,13.26,13.26,23Zm-97-2h95v-21.8l-12.73-22-22-12.73H940.69l-22,12.73-12.72,22Z" transform="translate(-889 -554.58)"/><polygon class="cls-2" points="65.71 51.5 28.9 14.69 29.87 13.72 63.05 46.89 50.9 1.58 52.24 1.22 65.71 51.5"/><polygon class="cls-1" points="67.64 54.85 27.48 14.69 29.87 12.3 61.11 43.55 49.68 0.87 52.94 0 67.64 54.85"/><polygon class="cls-2" points="63.05 51.5 76.52 1.22 77.85 1.58 65.71 46.89 98.88 13.72 99.86 14.69 63.05 51.5"/><polygon class="cls-1" points="61.11 54.85 75.81 0 79.08 0.87 67.64 43.55 98.88 12.3 101.27 14.69 61.11 54.85"/><polygon class="cls-2" points="112 62.67 61.71 49.2 112 35.72 112.35 37.05 67.04 49.2 112.35 61.34 112 62.67"/><polygon class="cls-1" points="112.71 63.9 57.85 49.2 112.71 34.5 113.58 37.76 70.9 49.2 113.58 60.63 112.71 63.9"/><polygon class="cls-2" points="16.76 62.67 16.4 61.34 61.71 49.2 16.4 37.05 16.76 35.72 67.04 49.2 16.76 62.67"/><polygon class="cls-1" points="16.05 63.9 15.17 60.63 57.85 49.2 15.17 37.76 16.05 34.5 70.9 49.2 16.05 63.9"/><path class="cls-1" d="M895.74,611.81h115.12a6.74,6.74,0,0,1,6.74,6.74h0a6.74,6.74,0,0,1-6.74,6.74H895.74a6.74,6.74,0,0,1-6.74-6.74h0A6.74,6.74,0,0,1,895.74,611.81Z" transform="translate(-889 -554.58)"/><path class="cls-1" d="M953.42,587.88h0a10.3,10.3,0,0,1,10.3,10.3v12.67h-20.6V598.17A10.31,10.31,0,0,1,953.42,587.88Z" transform="translate(-889 -554.58)"/><path class="cls-2" d="M964.71,611.84H942.12V598.17a11.3,11.3,0,0,1,22.59,0Zm-20.59-2h18.59V598.17a9.3,9.3,0,0,0-18.59,0Z" transform="translate(-889 -554.58)"/></svg>