<?xml version="1.0" encoding="utf-8"?>
<!-- Generator: Adobe Illustrator 23.0.1, SVG Export Plug-In . SVG Version: 6.00 Build 0)  -->
<svg version="1.1" id="Layer_1" xmlns="http://www.w3.org/2000/svg" xmlns:xlink="http://www.w3.org/1999/xlink" x="0px" y="0px"
	 viewBox="0 0 1920 1080" style="enable-background:new 0 0 1920 1080;" xml:space="preserve">
<style type="text/css">
	.st0{fill:#00309B;}
	.st1{fill:#00309B;stroke:#FFFFFF;stroke-width:2;stroke-miterlimit:10;}
	.st2{fill:#FFFFFF;}
	.st3{fill:#FFFFFF;stroke:#00309B;stroke-width:2;stroke-miterlimit:10;}
	.st4{fill:none;}
	.st5{font-family:'DBAdmanX-Bold';}
	.st6{font-size:20px;}
	.st7{fill:none;stroke:#FFFFFF;stroke-width:2;stroke-miterlimit:10;stroke-dasharray:12;}
</style>
<rect x="-25.66" y="-21.39" class="st0" width="1956.98" height="1122.79"/>
<g>
	<g>
		<polygon class="st1" points="1004.02,235.22 1004.02,212.15 991.03,189.65 968.52,176.66 942.54,176.66 920.04,189.65 
			907.04,212.15 907.04,235.22 		"/>
	</g>
	<g>
		<polygon class="st1" points="956.82,227.07 920.01,190.26 920.99,189.28 954.16,222.46 942.02,177.14 943.35,176.78 		"/>
	</g>
	<g>
		<polygon class="st1" points="954.16,227.07 967.64,176.78 968.97,177.14 956.82,222.46 990,189.28 990.97,190.26 		"/>
	</g>
	<g>
		<polygon class="st1" points="1003.11,238.24 952.83,224.76 1003.11,211.29 1003.47,212.62 958.16,224.76 1003.47,236.9 		"/>
	</g>
	<g>
		<polygon class="st1" points="907.87,238.24 907.52,236.9 952.83,224.76 907.52,212.62 907.87,211.29 958.16,224.76 		"/>
	</g>
	<path class="st2" d="M1012.98,246.27H897.86c-3.72,0-6.74-3.02-6.74-6.74v0c0-3.72,3.02-6.74,6.74-6.74h115.12
		c3.72,0,6.74,3.02,6.74,6.74v0C1019.72,243.26,1016.7,246.27,1012.98,246.27z"/>
	<path class="st3" d="M965.83,231.82h-20.59v-12.67c0-5.69,4.61-10.3,10.3-10.3l0,0c5.69,0,10.3,4.61,10.3,10.3V231.82z"/>

</svg>
