<?xml version="1.0" encoding="utf-8"?>
<!-- Generator: Adobe Illustrator 23.0.1, SVG Export Plug-In . SVG Version: 6.00 Build 0)  -->
<svg version="1.1" id="Layer_1" xmlns="http://www.w3.org/2000/svg" xmlns:xlink="http://www.w3.org/1999/xlink" x="0px" y="0px"
	 viewBox="0 0 595.28 841.89" style="enable-background:new 0 0 595.28 841.89;" xml:space="preserve">
<style type="text/css">
	.st0{fill:none;stroke:#000000;stroke-miterlimit:10;}
</style>
<g>
	<path class="st0" d="M338.06,411.94c-1.78,1-3.69,2.03-5.76,3.05L338.06,411.94z"/>
	<line class="st0" x1="364.39" y1="378.55" x2="404.63" y2="355.66"/>
	<line class="st0" x1="364.2" y1="377.51" x2="241.64" y2="450.33"/>
	<path class="st0" d="M232.41,447.16c1.21-1.29,2.37-2.04,2.37-2.04"/>
	<path class="st0" d="M248.5,434.66c4.6-3.46,10.19-7.67,16.32-12.31c1.63-1.21,3.29-2.48,5-3.77c1.25-0.93,2.5-1.87,3.79-2.84
		c2.01-1.51,4.07-3.07,6.13-4.62c12.27-9.26,25.31-19.07,36.52-27.53c1.04-0.78,2.08-1.55,3.09-2.31c1.72-1.31,3.41-2.57,5.02-3.79"
		/>
	<path class="st0" d="M327,375.52c1.29-0.97,2.54-1.91,3.73-2.8c0.85-0.64,1.68-1.27,2.48-1.87c3.14-2.37,5.83-4.39,7.89-5.93
		c1.08-0.81,1.99-1.5,2.71-2.04c1.33-1,2.04-1.55,2.04-1.55s2.46,0.08,5.47,0.98c1.02,0.3,2.1,0.72,3.18,1.25
		c0.97,0.47,1.93,1.06,2.82,1.76"/>
	<polyline class="st0" points="297.56,362.17 299.34,359.33 305.45,349.67 307.97,345.68 310.02,343.79 340.52,315.5 343.92,312.34 
		348.28,311.11 371.36,304.58 374.27,303.74 375.62,304.58 399.04,319.12 399.57,321.58 399.57,321.6 400.59,326.44 405.82,351.27 
		394.61,392.99 393.21,395.79 383.75,413.77 388.02,416.56 397.01,397.52 398.55,394.17 409.3,351.62 407.54,344.01 404.98,332.96 
		403.51,326.58 402.18,320.78 401.23,316.71 396.42,313.7 392.2,311.05 374.82,300.15 342.6,308.21 305,341.78 301.84,346.83 
		295.46,357.06 293.66,359.94 	"/>
	<line class="st0" x1="293.66" y1="359.94" x2="286.92" y2="370.71"/>
	<polyline class="st0" points="279.74,411.13 288.11,378.66 288.79,376.05 297.56,362.17 	"/>
	<line class="st0" x1="284.85" y1="374.02" x2="273.61" y2="415.75"/>
	<polygon class="st0" points="282.87,247.99 250.57,256.62 213.76,287.9 192.05,322.49 188.3,337.12 181.01,365.54 188.37,399.01 
		183.96,397.18 176.6,364.44 183.3,339.74 188.37,321.01 209.71,286.06 246.52,254.05 279.25,245.96 	"/>
	<polyline class="st0" points="282.87,247.99 296.14,255.52 304.37,260.18 313.41,265.31 319.39,268.7 338.21,279.38 351.14,286.72 
		351.16,286.72 355.23,289.03 359.75,291.61 365.3,294.75 374.82,300.15 	"/>
	<polyline class="st0" points="272.79,269.1 272.79,269.08 280.97,251.96 282.87,247.99 	"/>
	<line class="st0" x1="213.76" y1="287.9" x2="305" y2="341.79"/>
	<line class="st0" x1="342.6" y1="308.21" x2="250.56" y2="256.62"/>
	<line class="st0" x1="181.02" y1="365.54" x2="269.83" y2="418.6"/>
	<line class="st0" x1="254.31" y1="258.73" x2="280.97" y2="251.96"/>
	<line class="st0" x1="184.5" y1="367.62" x2="192.05" y2="399.02"/>
	<polyline class="st0" points="264.37,444.28 278.63,452.93 278.63,452.93 	"/>
	<polyline class="st0" points="188.37,399.01 190.97,400.55 190.97,400.57 205.39,409.1 214.46,414.48 216.39,415.64 239.72,429.46 
		248.48,434.66 	"/>
	<polyline class="st0" points="275.71,439.5 279.14,455.3 283.21,455.3 284.12,453.24 279.92,437.72 	"/>
	<line class="st0" x1="302.15" y1="428.23" x2="283.33" y2="450.33"/>
	<line class="st0" x1="205.1" y1="379.92" x2="190.97" y2="400.56"/>
	<line class="st0" x1="201.35" y1="385.4" x2="264.83" y2="422.36"/>
	<line class="st0" x1="330.74" y1="372.71" x2="307.97" y2="345.69"/>
	<line class="st0" x1="310.01" y1="343.79" x2="333.21" y2="370.84"/>
	<line class="st0" x1="340.52" y1="315.49" x2="343.81" y2="362.86"/>
	<polyline class="st0" points="346.91,361.32 343.92,312.34 364.2,325.22 	"/>
	<line class="st0" x1="288.79" y1="376.05" x2="319.35" y2="381.29"/>
	<line class="st0" x1="288.12" y1="378.67" x2="316.43" y2="383.64"/>
	<line class="st0" x1="351.15" y1="362.86" x2="371.35" y2="304.57"/>
	<line class="st0" x1="354.5" y1="363.54" x2="375.61" y2="304.57"/>
	<line class="st0" x1="359.4" y1="366.75" x2="399.56" y2="321.58"/>
	<line class="st0" x1="361.79" y1="368.93" x2="400.65" y2="326.36"/>
	<line class="st0" x1="348.29" y1="311.1" x2="365.39" y2="321.79"/>
	<line class="st0" x1="367.47" y1="327.31" x2="384.8" y2="338.19"/>
	<polyline class="st0" points="364.2,375.53 405.81,351.27 388.12,340.09 	"/>
	<line class="st0" x1="362.31" y1="389.03" x2="394.6" y2="393"/>
	<polyline class="st0" points="393.2,395.8 360.74,392.2 364.2,394.79 	"/>
	<path class="st0" d="M253.03,331.63c-0.08,0.15-0.15,0.3-0.25,0.45l-5.23-3.05c-4.01-1.15-3.37,2.59-3.37,2.59l6.27,3.6
		c-0.4,0.45-0.83,0.87-1.27,1.25c-1.59,1.36-3.31,2.33-5,2.82c-1.21,0.36-2.42,0.47-3.52,0.3c-1-0.13-1.93-0.51-2.75-1.12
		c-3.54-2.71-3.2-9.13,0.78-14.35c1-1.33,2.14-2.44,3.35-3.31c3.54-2.63,7.61-3.26,10.26-1.23
		C255.36,321.92,255.55,326.96,253.03,331.63z"/>
	<path class="st0" d="M250.45,335.23l-6.27-3.6c0,0-0.64-3.75,3.37-2.59l5.23,3.05"/>
	<line class="st0" x1="295.46" y1="357.06" x2="252.78" y2="332.09"/>
	<line class="st0" x1="311.53" y1="366.47" x2="299.34" y2="359.33"/>
	<line class="st0" x1="308.31" y1="368.32" x2="297.56" y2="362.17"/>
	<polyline class="st0" points="293.66,359.94 291.44,358.67 257.38,339.19 250.45,335.23 	"/>
	<line class="st0" x1="221.38" y1="292.4" x2="242.04" y2="320.82"/>
	<line class="st0" x1="291.45" y1="358.68" x2="279.16" y2="366.49"/>
	<line class="st0" x1="279.12" y1="366.47" x2="257.38" y2="339.19"/>
	<line class="st0" x1="215.22" y1="291.28" x2="239.3" y2="323.38"/>
	<line class="st0" x1="249.18" y1="336.48" x2="272.48" y2="362.86"/>
	<polyline class="st0" points="253.04,331.63 278.01,331.63 301.84,346.84 	"/>
	<line class="st0" x1="305.45" y1="349.67" x2="313.95" y2="352.79"/>
	<polyline class="st0" points="228.91,302.75 273.61,329.04 254.14,329.04 	"/>
	<polyline class="st0" points="236.73,327.43 196.42,321.45 216.64,289.6 	"/>
	<line class="st0" x1="205.13" y1="326.19" x2="235.73" y2="330.48"/>
	<line class="st0" x1="375.69" y1="348.44" x2="362.9" y2="340.11"/>
	<line class="st0" x1="392.2" y1="359.2" x2="378.7" y2="350.41"/>
	<line class="st0" x1="359.73" y1="338.07" x2="344.91" y2="328.41"/>
	<polyline class="st0" points="392.2,362.73 392.2,367.62 385,391.82 364.39,378.55 	"/>
	<polyline class="st0" points="341.1,364.91 317.77,352.83 341.7,332.53 	"/>
	<line class="st0" x1="368.91" y1="323.3" x2="389.63" y2="332.75"/>
	<line class="st0" x1="106.58" y1="379.95" x2="77.54" y2="395.17"/>
	<line class="st0" x1="183.29" y1="339.74" x2="119.13" y2="373.39"/>
	<polygon class="st0" points="286.92,370.71 284.85,374.02 203.78,329 192.05,322.49 196.42,321.45 207.1,327.26 244.19,347.44 
		244.19,347.46 248.26,349.66 248.26,349.67 272.47,362.83 279.12,366.47 279.14,366.49 279.16,366.49 	"/>
	<line class="st0" x1="208.29" y1="326.63" x2="207.1" y2="327.26"/>
	<line class="st0" x1="240.67" y1="309.67" x2="235.8" y2="312.23"/>
	<line class="st0" x1="232.3" y1="314.04" x2="213.4" y2="323.96"/>
	<line class="st0" x1="203.78" y1="329" x2="188.3" y2="337.12"/>
	<line class="st0" x1="205.4" y1="409.12" x2="216.12" y2="394"/>
	<polyline class="st0" points="214.46,414.49 225.42,399.42 227.38,400.56 216.39,415.63 	"/>
	<line class="st0" x1="239.71" y1="429.46" x2="250.8" y2="414.19"/>
	<line class="st0" x1="283.21" y1="455.3" x2="298.06" y2="465.06"/>
	<path class="st0" d="M479.56,386.57l-0.02-0.02c-7.44-6.78-14.98-9.52-17.38-10.28h-0.02l-0.02-0.02
		c-0.47-0.15-0.74-0.21-0.74-0.21l-73.36,40.52l-32.81,18.14l-15.94,8.82h-0.02l-8.77,4.85l-11.02,6.08l-4.43,2.46h-0.02
		l-31.31,17.3l-4.01,2.22l-7.12,3.92l-38.64,21.36"/>
	<path class="st0" d="M523.21,377.68h3.25c0,0,6.56,5,2.39,11.35c-4.18,6.36-27.45,45.14-27.45,45.14l-208.66,117.7l-63.16-1.99
		c0,0,3.38-9.76-2.47-15.03c0,0-6.05,7.54,2.47,15.03"/>
	<path class="st0" d="M229.59,549.89"/>
	<path class="st0" d="M227.12,534.86l14.92-15.36l51.09-14.99c0,0,18.31,23.18,4.94,44.36"/>
	<path class="st0" d="M222.36,453.24c0,0-0.02-0.21-0.06-0.55"/>
	<polyline class="st0" points="293.13,504.51 304.41,500.95 310.83,498.92 310.83,490.91 283.7,474.21 261.93,460.79 	"/>
	<polygon class="st0" points="229.59,440.98 225.18,442.67 198.03,426.45 153.86,451.55 153.84,451.55 151.5,450.07 151.48,450.07 
		151.48,450.05 148.88,404.95 148.91,404.96 175.35,420.57 187.2,427.59 193.86,423.95 182.22,417 148.43,396.78 148.41,396.78 
		147.14,396.02 146.01,396.78 140.4,399.93 104.14,420.31 100.57,418.05 131.07,401.06 136.85,397.84 143.75,394 113.88,376.12 
		91.72,362.89 87.6,360.76 91.31,356.34 119.13,373.39 186.63,414.69 	"/>
	<polyline class="st0" points="70.55,395.4 70.65,395.28 91.46,371.01 	"/>
	<polyline class="st0" points="91.72,362.89 64.52,395.4 60.43,395.4 60.43,393.16 87.6,360.76 	"/>
	<line class="st0" x1="235.42" y1="444.56" x2="229.59" y2="440.98"/>
	<polyline class="st0" points="291.16,491.84 272.57,480.35 254.15,468.95 	"/>
	<polyline class="st0" points="243.9,462.63 239.76,460.05 235.31,457.31 	"/>
	<line class="st0" x1="136.85" y1="397.84" x2="130.74" y2="394.22"/>
	<polyline class="st0" points="222.23,449.2 220.16,447.94 198.28,434.42 	"/>
	<polygon class="st0" points="193.86,423.95 187.2,427.59 175.35,420.57 148.91,404.96 148.88,404.95 143.94,402.02 143.93,402.02 
		140.4,399.93 146.01,396.78 147.14,396.02 148.41,396.78 148.43,396.78 182.22,417 	"/>
	<path class="st0" d="M229.67,453.82c-0.27,3.6,0.23,7.54,0.23,7.54l-5.83-3.09c4.05-0.95,2.06-4.52,2.06-4.52l-3.77-1.1l-0.06,0.04
		c-0.08-0.7-0.15-2.03-0.08-3.48c0.13-2.54,0.8-5.51,2.95-6.53l7.23,4.49c-0.55,0.57-1.12,1.25-1.59,2.01
		C230.12,450.26,229.8,452.01,229.67,453.82z"/>
	<path class="st0" d="M235.89,456.91l-0.59,0.4l-3.26,2.2l-1.5,1.29l-0.66,0.57c0,0-0.49-3.94-0.23-7.54
		c0.13-1.82,0.45-3.56,1.15-4.66c0.47-0.76,1.04-1.44,1.59-2.01l0.72,0.44C231.29,452.23,235.89,456.91,235.89,456.91z"/>
	<path class="st0" d="M248.5,434.66h-0.02c-6.63,5.02-11.26,8.5-12.59,9.5c-0.17,0.13-0.32,0.25-0.47,0.4
		c-1.17,0.95-1.89,1.99-2.29,3.03c-1.84,4.64,2.76,9.31,2.76,9.31l2.37-1.61c0,0-1.14-0.64-1.84-1.87c-0.53-0.97-0.81-2.27-0.17-3.9
		c0.36-0.89,0.98-1.89,2.01-2.97l0.15-0.15c1.29-1.27,5.96-4.98,12.68-10.15"/>
	<path class="st0" d="M364.39,378.55c-0.04,2.92-0.66,6.4-2.08,10.49c0,0-0.36,1.17-1.57,3.16c-1.38,2.29-3.9,5.66-8.25,9.58
		l-0.06,0.04v0.02c-1.63,1.46-3.52,2.99-5.72,4.58c-2.48,1.8-5.34,3.65-8.63,5.51l-0.02,0.02l-5.76,3.05c-1.87,0.95-3.88,1.87-6,2.8
		c-5.3,2.31-11.3,4.92-17.65,7.65c-2.14,0.91-4.3,1.84-6.49,2.78c-0.97,0.42-1.91,0.81-2.88,1.23c-4.51,1.93-9.07,3.88-13.57,5.77
		c-1.95,0.85-3.88,1.67-5.79,2.48c-1.42,0.61-2.82,1.19-4.2,1.78c-3.94,1.69-7.74,3.29-11.34,4.79c-4.77,2.03-9.14,3.88-12.89,5.47
		c-1.63,0.68-3.14,1.31-4.51,1.87c-1.67,0.7-3.12,1.33-4.34,1.84h-0.02c-2.78,1.17-4.35,1.84-4.35,1.84s-1.14-0.64-1.84-1.87
		c-0.53-0.97-0.81-2.27-0.17-3.9c0.36-0.89,0.98-1.89,2.01-2.97l0.15-0.15c1.29-1.27,5.96-4.98,12.68-10.15
		c29.35-22.61,98-73.38,98-73.38s4.22,0.15,8.24,2.44c0.72,0.42,1.42,0.89,2.08,1.44c2.29,1.87,4.2,4.66,4.79,8.77
		C364.33,376.46,364.39,377.47,364.39,378.55z"/>
	<line class="st0" x1="251.1" y1="458.73" x2="242.63" y2="453.46"/>
	<polyline class="st0" points="261.42,465.11 279.69,476.43 300.13,489.08 242.05,506.99 214.78,489.85 	"/>
	<polygon class="st0" points="261.93,460.79 257.93,462.95 250.72,466.85 211.72,487.92 208.04,485.61 247.75,465.01 255.09,461.19 
		259.14,459.09 260.94,460.18 	"/>
	<polyline class="st0" points="104.14,420.31 109.93,423.95 133.68,438.87 136.69,440.76 145.99,446.6 145.99,446.62 146.01,446.62 
		146.01,446.63 151.48,450.05 	"/>
	<polyline class="st0" points="153.86,451.55 161.41,456.3 165.4,458.82 165.43,458.82 183.29,470.07 186.88,472.31 192.86,476.07 
		196.69,478.47 199.99,480.55 205.08,483.74 	"/>
	<polyline class="st0" points="210.11,492.33 240.67,511.06 305.6,492.43 310.83,490.91 	"/>
	<path class="st0" d="M207.04,490.46l-7.36-4.51L57.76,399.01l2.67-3.62h4.09l4.7,2.95l5.09,3.2l13.29,8.37c0,0,0,0,0.02,0
		l12.93,8.14h0.02"/>
	<line class="st0" x1="300.14" y1="489.07" x2="305.6" y2="492.42"/>
	<line class="st0" x1="304.42" y1="500.94" x2="305.6" y2="492.42"/>
	<line class="st0" x1="100.56" y1="418.06" x2="100.55" y2="418.06"/>
	<polygon class="st0" points="143.75,394 130.74,394.22 123.98,390.24 106.58,379.95 91.46,371.01 91.72,362.89 113.88,376.12 	"/>
	<polyline class="st0" points="64.52,395.4 70.65,395.28 77.54,395.17 119.02,394.42 130.74,394.22 	"/>
	<line class="st0" x1="69.2" y1="398.35" x2="136.85" y2="397.85"/>
	<line class="st0" x1="74.3" y1="401.56" x2="131.07" y2="401.07"/>
	<line class="st0" x1="148.88" y1="404.95" x2="148.41" y2="396.78"/>
	<line class="st0" x1="146" y1="446.62" x2="143.75" y2="398.1"/>
	<line class="st0" x1="109.93" y1="423.95" x2="144.11" y2="405.84"/>
	<line class="st0" x1="119.01" y1="394.43" x2="123.99" y2="390.24"/>
	<path class="st0" d="M87.6,409.92c0,0,15.07-8.11,15.08-8.36"/>
	<path class="st0" d="M64.51,432.22c0,0,6.34,0.71,4.69,12.9C69.2,445.12,61.17,439.89,64.51,432.22z"/>
	<path class="st0" d="M78.48,420.31c0,0-7.87,11.32-13.97,11.91"/>
	<path class="st0" d="M69.2,445.12c0,0,45.89,3.21,50.32,1.5"/>
	<polyline class="st0" points="57.76,399.02 57.76,407.52 239.48,522.13 	"/>
	<path class="st0" d="M132.64,411.92c0,0,8.35,15.05,1.04,26.96"/>
	<polyline class="st0" points="145.2,429.5 139.73,408.17 136.29,422.94 	"/>
	<line class="st0" x1="201.76" y1="406.8" x2="186.63" y2="414.69"/>
	<line class="st0" x1="150.55" y1="433.53" x2="175.35" y2="420.58"/>
	<line class="st0" x1="136.69" y1="440.76" x2="145.51" y2="436.16"/>
	<line class="st0" x1="355.34" y1="434.63" x2="349.66" y2="430.78"/>
	<line class="st0" x1="388.02" y1="416.56" x2="374.82" y2="407.93"/>
	<polygon class="st0" points="342.75,423.63 347.16,427.47 349.66,426.38 349.66,430.79 346.71,431.72 341.87,427.68 342.75,423.63 
			"/>
	<line class="st0" x1="352.43" y1="401.83" x2="347.16" y2="427.47"/>
	<polyline class="st0" points="352.48,401.78 364.2,394.79 376.96,410.62 373.19,413 370.94,409.8 364.39,400.53 354.68,406.26 
		351.14,420.45 349.66,426.39 	"/>
	<line class="st0" x1="342.75" y1="423.63" x2="346.71" y2="406.4"/>
	<line class="st0" x1="397.02" y1="397.53" x2="409.3" y2="404.83"/>
	<polyline class="st0" points="338.06,411.94 328.12,436.94 324.9,444.98 321.62,453.24 	"/>
	<path class="st0" d="M332.3,414.99c0,0-3.56,9.84-7.48,19.99c-1.04,2.71-2.12,5.43-3.16,8.03c-1.63,4.01-3.16,7.63-4.39,10.19
		c-1,2.06-1.78,3.43-2.23,3.71h-0.02"/>
	<line class="st0" x1="285.71" y1="435.23" x2="319.47" y2="454.45"/>
	<polyline class="st0" points="339.26,443.52 308.66,425.44 284.12,453.24 	"/>
	<line class="st0" x1="299.29" y1="429.46" x2="330.48" y2="448.37"/>
	<line class="st0" x1="67.7" y1="413.79" x2="67.7" y2="431.26"/>
	<polyline class="st0" points="112.72,447.12 112.72,451.78 121.75,467.48 122.53,448.37 	"/>
	<line class="st0" x1="187.2" y1="427.58" x2="151.49" y2="447.12"/>
	<polygon class="st0" points="198.28,434.42 168.2,451.13 153.86,451.55 198.03,426.45 	"/>
	<polyline class="st0" points="168.19,451.14 196.69,450.32 191.04,454.88 188.37,455.02 161.41,456.3 165.41,458.82 185.63,457.31 
		183.13,460.18 183.3,470.07 	"/>
	<line class="st0" x1="185.62" y1="457.3" x2="188.38" y2="455.01"/>
	<path class="st0" d="M196.69,450.33l8.96-5.85c0,0,16.82,1.66,16.7,18.83l0,10.78"/>
	<path class="st0" d="M199.68,485.95"/>
	<path class="st0" d="M183.13,460.18c0,0,9.71-4.81,15.16,4.88c0,0,3.26,4.24,1.72,15.5"/>
	<path class="st0" d="M205.07,483.74c0,0,0.76-8.77-1.34-18.25c-0.3-1.33-0.76-2.48-1.34-3.5c-3.52-6.27-11.34-7.1-11.34-7.1"/>
	<path class="st0" d="M183.26,467.68c0,0,1.91-7.11,7.39-4.42c5.48,2.7,5.68,9.36,6.04,15.22"/>
	<path class="st0" d="M186.88,472.32c0,0,0.8-4.05,3.09-3.22c2.3,0.83,2.85,4.48,2.89,6.98"/>
	<path class="st0" d="M262,456.15v1.46l-2.86,1.48l-4.05,2.1l-7.35,3.82l-39.7,20.6l-2.97-1.87l4.45-2.42l20.35-11.06h0.02v-0.02
		l5.13-2.78l8.88-4.83l7.19-3.9l3.94-2.16l-8.07-4.94c1.36-0.57,2.88-1.19,4.51-1.87L262,456.15z"/>
	<line class="st0" x1="218.95" y1="451.87" x2="202.38" y2="461.98"/>
	<polyline class="st0" points="235.02,467.46 235.02,462.54 230.55,460.8 	"/>
	<line class="st0" x1="239.75" y1="460.05" x2="235.02" y2="462.54"/>
	<path class="st0" d="M209.52,481.31c-0.21-10.77-1.48-16-1.48-16l13.42-8.41h0.02l2.57,1.36"/>
	<polyline class="st0" points="229.89,461.36 229.89,464.12 229.89,470.24 	"/>
	<polyline class="st0" points="222.15,460.05 229.89,464.12 229.89,470.24 	"/>
	<line class="st0" x1="229.87" y1="470.26" x2="222.36" y2="465.39"/>
	<line class="st0" x1="222.3" y1="452.69" x2="220.16" y2="453.75"/>
	<line class="st0" x1="217.05" y1="449.75" x2="220.15" y2="447.94"/>
	<path class="st0" d="M164.65,474.94c-11.75,0.02-14.7,13.39-14.7,13.39l75.47,50.06"/>
	<polygon class="st0" points="262,464.79 261.42,465.11 254.15,468.95 214.78,489.85 211.72,487.92 250.72,466.85 257.93,462.95 
		261.93,460.79 	"/>
	<line class="st0" x1="210.11" y1="492.33" x2="200.41" y2="497.48"/>
	<line class="st0" x1="210.11" y1="492.33" x2="207.04" y2="490.46"/>
	<line class="st0" x1="214.78" y1="489.85" x2="211.72" y2="487.92"/>
	<polyline class="st0" points="199.68,485.95 197.46,495.63 207.04,490.46 	"/>
	<line class="st0" x1="121.75" y1="467.48" x2="139.37" y2="458.99"/>
	<line class="st0" x1="154.88" y1="479.14" x2="131.77" y2="462.65"/>
	<line class="st0" x1="126.08" y1="465.4" x2="151.69" y2="483.75"/>
	<path class="st0" d="M113.56,453.24c0,0-4.03,1.3-3.12,7.56l6.68-1.35l-5.38,27.9c-0.5,2.6-4.05,3.4-5.39,1.11
		c-0.38-0.65-0.35-1.18-0.35-1.18"/>
	<line class="st0" x1="111.57" y1="460.57" x2="106.01" y2="487.26"/>
	<polyline class="st0" points="130.56,468.61 130.56,476.08 112.02,485.95 	"/>
	<path class="st0" d="M135.16,471.97v3.74c0,2.78-4.11,3.23-4.58,0.5c-0.01-0.04-0.01-0.08-0.02-0.13"/>
	<path class="st0" d="M108.57,475l-14.21,8.74c0,0-4.45,1.99,0,5.6c4.45,3.61,18.36,12.39,18.36,12.39l28.14-15.78
		c0,0,6.35-2.86,2.46-5.39c-4.62-3-8.16-5.56-8.16-5.56"/>
	<line class="st0" x1="238.97" y1="344.6" x2="240.67" y2="339.6"/>
	<line class="st0" x1="244.19" y1="347.44" x2="244.19" y2="339.3"/>
	<line class="st0" x1="248.26" y1="349.66" x2="247.53" y2="337.72"/>
	<line class="st0" x1="351.15" y1="420.44" x2="370.94" y2="409.81"/>
	<path class="st0" d="M311.53,366.47l15.47,9.05c-0.85,0.64-1.72,1.31-2.63,1.99l-16.05-9.18"/>
	<line class="st0" x1="320.92" y1="361.05" x2="311.53" y2="366.47"/>
	<polyline class="st0" points="323.53,359.56 326.94,357.59 327,357.55 	"/>
	<line class="st0" x1="308.31" y1="368.32" x2="293.34" y2="376.96"/>
	<line class="st0" x1="298.29" y1="380.62" x2="294" y2="400.03"/>
	<line class="st0" x1="245.69" y1="550.4" x2="255.43" y2="556.97"/>
	<path class="st0" d="M256,550.72c0,0-2.65,9.1,2.65,10.48c5.3,1.38,8.21-2.37,8.21-2.37"/>
	<path class="st0" d="M265.04,551c0,0-6.16,2.11-2.36,5.12c3.8,3.01,11.91,6.69,11.91,6.69"/>
	<polyline class="st0" points="470.3,461.85 474.83,459.28 476.23,448.37 	"/>
	<polyline class="st0" points="466.36,464.08 457.26,469.27 281.18,569.52 281.18,551.52 	"/>
	<line class="st0" x1="293.67" y1="562.41" x2="305.77" y2="569.52"/>
	<path class="st0" d="M268.39,551l8.54,16.29l12.46,6.51l-6.77,25.49c0,0,1.82,2.83,4.82,3.52c1.05,0.24,2.11-0.42,2.4-1.46
		l7.57-26.21c0,0-4.9-6.72-6.46-4.03c-1.56,2.69-1.56,2.69-1.56,2.69"/>
	<polyline class="st0" points="285.07,590.1 268.39,599.3 293.67,614.23 326.65,595.18 307.97,581.8 	"/>
	<path class="st0" d="M308.44,576.6c0,0,2.74,0.72,2.32,2.65c-0.41,1.93-3.27,1.18-3.27,1.18"/>
	<path class="st0" d="M310.73,578.39c0.58-1.81-0.77-2.62-0.77-2.62s-4.22,1.02-1.99,6.02c0,0,1.23,1.19,1.83-1.42"/>
	<path class="st0" d="M309.96,575.78l-3.07-1.97c0.34-6.02-3.93-5.14-3.93-5.14c-8.5,5.41-4.68,11.49-4.68,11.49s1.76,2.56,4.76,0"
		/>
	<path class="st0" d="M303.71,582.07l3.61,8.92c0,0,4.07,1.19,4.51,0l-3.86-9.19L303.71,582.07c0,0-1.25-4.77-3.18-4.17
		c0,0-0.07-5.65,6.36-4.09"/>
	<line class="st0" x1="290.43" y1="599.33" x2="307.32" y2="590.99"/>
	<path class="st0" d="M498.11,397.52l-1.48,25.31c-1.7-17.91-9.33-29.25-17.08-36.26L498.11,397.52z"/>
	<polyline class="st0" points="407.54,344.01 462.12,376.26 462.14,376.28 462.16,376.28 	"/>
	<line class="st0" x1="479.56" y1="386.57" x2="479.54" y2="386.56"/>
	<polyline class="st0" points="504.57,396.42 505.95,395.79 538.36,361.77 538.36,350.7 536.62,349.67 356.23,242.46 297.88,256.54 
			"/>
	<line class="st0" x1="447.71" y1="367.75" x2="447.71" y2="383.44"/>
	<polyline class="st0" points="533.65,353.5 533.27,353.27 529.52,351.02 492.85,329.08 	"/>
	<polyline class="st0" points="490.97,327.94 486.73,325.4 354.05,245.96 301.72,258.68 	"/>
	<line class="st0" x1="536.62" y1="349.67" x2="503.58" y2="385"/>
	<line class="st0" x1="404.98" y1="332.96" x2="498.06" y2="387.66"/>
	<path class="st0" d="M504.21,419.65c0,0-4.07-17.63-6.1-22.13l-0.06-9.86l5.53-2.65l0.62,9.79c0,0,0.15,0.57,0.36,1.63
		C505.21,399.87,506.37,408.54,504.21,419.65z"/>
	<polygon class="st0" points="501.33,381.1 499.76,382.77 495.08,380.02 493.02,362.89 488.97,329.06 490.97,327.94 492.85,329.06 
		492.85,329.08 494.19,337.29 497.94,360.33 	"/>
	<polyline class="st0" points="403.45,326.54 443.76,350.07 447.43,352.21 453.37,355.68 478.59,370.41 495.08,380.02 	"/>
	<line class="st0" x1="503.58" y1="385" x2="499.76" y2="382.77"/>
	<polyline class="st0" points="529.52,351.02 525.15,355.68 501.33,381.1 	"/>
	<line class="st0" x1="402.17" y1="320.78" x2="441.03" y2="298.04"/>
	<line class="st0" x1="401.24" y1="316.72" x2="436.87" y2="295.54"/>
	<polyline class="st0" points="442.42,298.87 442.23,306.13 474.01,325.04 	"/>
	<line class="st0" x1="403.59" y1="326.93" x2="442.23" y2="306.13"/>
	<polyline class="st0" points="408.1,324.5 486.75,325.41 443.76,350.07 	"/>
	<line class="st0" x1="406.68" y1="328.42" x2="480.38" y2="329.06"/>
	<line class="st0" x1="414.88" y1="333.21" x2="472.63" y2="333.51"/>
	<line class="st0" x1="488.97" y1="329.06" x2="447.43" y2="352.21"/>
	<line class="st0" x1="453.37" y1="355.68" x2="489.87" y2="336.61"/>
	<line class="st0" x1="494.19" y1="337.28" x2="525.14" y2="355.68"/>
	<line class="st0" x1="516.63" y1="350.62" x2="497.94" y2="360.33"/>
	<line class="st0" x1="493.02" y1="362.89" x2="478.59" y2="370.41"/>
	<path class="st0" d="M482.47,473.59c0,0,0.98-4.39-1.74-5.58c-2.72-1.2-7.83,2.5-7.4,8.05c0.44,5.55,5.11,2.51,5.11,2.51l4.2,2.06
		c0,0,0.26-5.66,2.88-5.11c2.61,0.54,1.74,4.46,1.74,4.46s-0.54,5.33-3.92,2.72c0,0-0.9-0.82-0.7-2.07"/>
	<path class="st0" d="M478.44,478.57"/>
	<path class="st0" d="M485.51,475.51l-5.17-2.89c0,0-5.93,1.29-1.91,5.95"/>
	<path class="st0" d="M470.3,461.85c-1.82,0.3-3.07,1.15-3.94,2.23"/>
	<line class="st0" x1="480.73" y1="468" x2="470.3" y2="461.85"/>
	<path class="st0" d="M466.36,464.08c-2.56,3.22-1.65,8.54-1.65,8.54l-7.46-3.35"/>
	<path class="st0" d="M474.13,478.57l-3.61-1.99c0,0,1.52-2.45-1.53-4.32s-4.28,0.36-4.28,0.36l-11.82,29.9c0,0-0.22,3.02,4.15,3.66
		c0.64,0.09,1.27-0.25,1.51-0.84l11.97-28.76"/>
	<polyline class="st0" points="476.23,479.37 480.35,492.21 484.34,491.11 480.72,479.69 	"/>
	<line class="st0" x1="459.16" y1="503.87" x2="480.35" y2="492.21"/>
	<polyline class="st0" points="457.22,491.57 442.97,500.7 466.43,516.22 496.64,498.04 498.34,497.09 483.51,488.5 	"/>
	<line class="st0" x1="393.39" y1="269.51" x2="396.42" y2="313.7"/>
	<line class="st0" x1="391.16" y1="268.17" x2="355.23" y2="289.04"/>
	<path class="st0" d="M392.2,311.05c-0.66-0.41-3.34-41.55-3.34-41.55"/>
	<line class="st0" x1="359.75" y1="291.6" x2="388.86" y2="276.51"/>
	<line class="st0" x1="393.87" y1="276.51" x2="431.28" y2="298.87"/>
	<path class="st0" d="M365.28,294.74c0,0,3.78-2.22,2.19-7.05"/>
	<polyline class="st0" points="304.32,260.17 388.04,266.3 351.15,286.72 	"/>
	<polyline class="st0" points="313.37,265.3 382.25,269.51 376.13,272.89 319.35,268.69 	"/>
	<polyline class="st0" points="320.27,261.34 354.5,253.31 354.06,245.95 	"/>
	<line class="st0" x1="373.19" y1="265.22" x2="354.5" y2="253.31"/>
	<line class="st0" x1="338.2" y1="279.38" x2="352.27" y2="271.13"/>
	<polyline class="st0" points="365.34,272.09 365.05,276.51 367.47,277.69 	"/>
	<line class="st0" x1="343.92" y1="276.03" x2="365.05" y2="276.51"/>
	<line class="st0" x1="333.21" y1="262.29" x2="346.18" y2="255.3"/>
</g>
</svg>
