<svg id="Layer_1" data-name="Layer 1" xmlns="http://www.w3.org/2000/svg" viewBox="0 0 481.83 372.88"><defs><style>.cls-1{fill:none;stroke:#000;stroke-miterlimit:10;}</style></defs><title>กังหัน-FIRSTPAGE(2)</title><path class="cls-1" d="M338.06,411.94q-2.67,1.51-5.76,3.05Z" transform="translate(-57.03 -241.93)"/><line class="cls-1" x1="307.36" y1="136.62" x2="347.6" y2="113.74"/><line class="cls-1" x1="307.17" y1="135.58" x2="184.61" y2="208.4"/><path class="cls-1" d="M232.41,447.16a14.68,14.68,0,0,1,2.37-2.05" transform="translate(-57.03 -241.93)"/><path class="cls-1" d="M248.5,434.66c4.6-3.46,10.19-7.66,16.32-12.3,1.63-1.21,3.3-2.48,5-3.77l3.79-2.84,6.13-4.62c12.27-9.26,25.32-19.06,36.52-27.53,1.05-.77,2.09-1.55,3.09-2.31l5-3.78" transform="translate(-57.03 -241.93)"/><path class="cls-1" d="M327,375.52l3.73-2.8,2.48-1.88c3.14-2.37,5.83-4.39,7.89-5.92l2.71-2.05,2.05-1.55a23.29,23.29,0,0,1,5.47,1,21.3,21.3,0,0,1,3.18,1.25,16.51,16.51,0,0,1,2.82,1.76" transform="translate(-57.03 -241.93)"/><polyline class="cls-1" points="240.53 120.25 242.31 117.41 248.42 107.75 250.94 103.75 252.99 101.86 283.49 73.58 286.89 70.41 291.25 69.18 314.33 62.65 317.24 61.82 318.59 62.65 342.01 77.19 342.54 79.65 342.54 79.67 343.56 84.52 348.78 109.34 337.58 151.07 336.18 153.87 326.72 171.85 330.99 174.64 339.98 155.59 341.51 152.24 352.27 109.7 350.51 102.09 347.95 91.03 346.48 84.65 345.15 78.86 344.2 74.79 339.39 71.78 335.17 69.13 317.79 58.22 285.57 66.29 247.97 99.86 244.81 104.91 238.43 115.13 236.63 118.01"/><line class="cls-1" x1="236.63" y1="118.01" x2="229.89" y2="128.78"/><polyline class="cls-1" points="222.71 169.21 231.08 136.74 231.76 134.12 240.53 120.25"/><line class="cls-1" x1="227.82" y1="132.1" x2="216.58" y2="173.82"/><polygon class="cls-1" points="225.84 6.06 193.54 14.7 156.73 45.97 135.01 80.56 131.27 95.2 123.98 123.61 131.34 157.09 126.93 155.25 119.57 122.52 126.27 97.81 131.34 79.09 152.68 44.14 189.49 12.12 222.22 4.04 225.84 6.06"/><polyline class="cls-1" points="225.84 6.06 239.11 13.6 247.34 18.25 256.37 23.39 262.36 26.77 281.18 37.45 294.11 44.8 294.13 44.8 298.2 47.11 302.72 49.68 308.27 52.83 317.79 58.22"/><polyline class="cls-1" points="215.76 27.17 215.76 27.15 223.94 10.04 225.84 6.06"/><line class="cls-1" x1="156.73" y1="45.98" x2="247.96" y2="99.86"/><line class="cls-1" x1="285.57" y1="66.29" x2="193.53" y2="14.7"/><line class="cls-1" x1="123.98" y1="123.61" x2="212.8" y2="176.67"/><line class="cls-1" x1="197.27" y1="16.8" x2="223.94" y2="10.04"/><line class="cls-1" x1="127.47" y1="125.69" x2="135.02" y2="157.1"/><polyline class="cls-1" points="207.34 202.36 221.59 211.01 221.59 211.01"/><polyline class="cls-1" points="131.34 157.09 133.94 158.62 133.94 158.64 148.36 167.18 157.43 172.56 159.36 173.71 182.69 187.53 191.45 192.74"/><polyline class="cls-1" points="218.68 197.57 222.11 213.38 226.18 213.38 227.09 211.32 222.88 195.79"/><line class="cls-1" x1="245.12" y1="186.31" x2="226.3" y2="208.4"/><line class="cls-1" x1="148.07" y1="138" x2="133.94" y2="158.63"/><line class="cls-1" x1="144.32" y1="143.47" x2="207.8" y2="180.44"/><line class="cls-1" x1="273.71" y1="130.78" x2="250.94" y2="103.76"/><line class="cls-1" x1="252.98" y1="101.87" x2="276.18" y2="128.92"/><line class="cls-1" x1="283.48" y1="73.57" x2="286.78" y2="120.94"/><polyline class="cls-1" points="289.87 119.39 286.89 70.41 307.17 83.29"/><line class="cls-1" x1="231.76" y1="134.12" x2="262.32" y2="139.36"/><line class="cls-1" x1="231.09" y1="136.74" x2="259.4" y2="141.71"/><line class="cls-1" x1="294.11" y1="120.94" x2="314.32" y2="62.65"/><line class="cls-1" x1="297.47" y1="121.62" x2="318.58" y2="62.65"/><line class="cls-1" x1="302.37" y1="124.83" x2="342.53" y2="79.65"/><line class="cls-1" x1="304.76" y1="127.01" x2="343.61" y2="84.44"/><line class="cls-1" x1="291.26" y1="69.17" x2="308.35" y2="79.86"/><line class="cls-1" x1="310.44" y1="85.38" x2="327.77" y2="96.26"/><polyline class="cls-1" points="307.17 133.6 348.78 109.34 331.09 98.16"/><line class="cls-1" x1="305.28" y1="147.11" x2="337.57" y2="151.07"/><polyline class="cls-1" points="336.17 153.88 303.71 150.27 307.17 152.86"/><path class="cls-1" d="M253,331.63c-.08.15-.15.3-.25.46l-5.22-3c-4-1.16-3.37,2.59-3.37,2.59l6.26,3.6a13.5,13.5,0,0,1-1.26,1.25,13.82,13.82,0,0,1-5,2.82,8.12,8.12,0,0,1-3.52.3,5.84,5.84,0,0,1-2.75-1.11c-3.54-2.71-3.2-9.13.78-14.36a15.88,15.88,0,0,1,3.35-3.31c3.54-2.63,7.61-3.25,10.26-1.23C255.36,321.92,255.55,327,253,331.63Z" transform="translate(-57.03 -241.93)"/><path class="cls-1" d="M250.45,335.23l-6.26-3.6s-.65-3.75,3.37-2.59l5.22,3" transform="translate(-57.03 -241.93)"/><line class="cls-1" x1="238.43" y1="115.13" x2="195.75" y2="90.16"/><line class="cls-1" x1="254.5" y1="124.54" x2="242.31" y2="117.41"/><line class="cls-1" x1="251.28" y1="126.4" x2="240.53" y2="120.25"/><polyline class="cls-1" points="236.63 118.01 234.41 116.74 200.35 97.26 193.42 93.3"/><line class="cls-1" x1="164.35" y1="50.48" x2="185.01" y2="78.89"/><line class="cls-1" x1="234.42" y1="116.75" x2="222.12" y2="124.56"/><line class="cls-1" x1="222.09" y1="124.54" x2="200.35" y2="97.26"/><line class="cls-1" x1="158.19" y1="49.35" x2="182.27" y2="81.46"/><line class="cls-1" x1="192.15" y1="94.56" x2="215.45" y2="120.94"/><polyline class="cls-1" points="196 89.7 220.97 89.7 244.81 104.91"/><line class="cls-1" x1="248.42" y1="107.75" x2="256.92" y2="110.87"/><polyline class="cls-1" points="171.88 60.83 216.57 87.12 197.11 87.12"/><polyline class="cls-1" points="179.69 85.5 139.39 79.52 159.61 47.67"/><line class="cls-1" x1="148.1" y1="84.26" x2="178.69" y2="88.55"/><line class="cls-1" x1="318.66" y1="106.52" x2="305.86" y2="98.19"/><line class="cls-1" x1="335.17" y1="117.27" x2="321.67" y2="108.49"/><line class="cls-1" x1="302.7" y1="96.14" x2="287.88" y2="86.49"/><polyline class="cls-1" points="335.17 120.8 335.17 125.69 327.97 149.89 307.36 136.62"/><polyline class="cls-1" points="284.07 122.98 260.74 110.91 284.67 90.61"/><line class="cls-1" x1="311.87" y1="81.37" x2="332.6" y2="90.82"/><line class="cls-1" x1="49.55" y1="138.03" x2="20.51" y2="153.24"/><line class="cls-1" x1="126.26" y1="97.81" x2="62.1" y2="131.46"/><polygon class="cls-1" points="229.89 128.78 227.82 132.1 146.75 87.08 135.01 80.56 139.39 79.52 150.07 85.33 187.16 105.52 187.16 105.53 191.23 107.73 191.23 107.75 215.44 120.91 222.09 124.54 222.11 124.56 222.13 124.56 229.89 128.78"/><line class="cls-1" x1="151.26" y1="84.71" x2="150.07" y2="85.33"/><line class="cls-1" x1="183.63" y1="67.74" x2="178.77" y2="70.3"/><line class="cls-1" x1="175.27" y1="72.12" x2="156.37" y2="82.04"/><line class="cls-1" x1="146.75" y1="87.08" x2="131.27" y2="95.2"/><line class="cls-1" x1="148.37" y1="167.19" x2="159.09" y2="152.07"/><polyline class="cls-1" points="157.43 172.56 168.39 157.49 170.35 158.63 159.36 173.71"/><line class="cls-1" x1="182.68" y1="187.53" x2="193.77" y2="172.27"/><line class="cls-1" x1="226.18" y1="213.38" x2="241.03" y2="223.14"/><path class="cls-1" d="M479.56,386.57h0a48.44,48.44,0,0,0-17.38-10.28h0l0,0a5.91,5.91,0,0,0-.74-.21L388,416.56,355.21,434.7l-15.94,8.82h0l-8.77,4.85-11,6.08L315,456.91h0l-31.31,17.3-4,2.22-7.12,3.92L233.93,501.7" transform="translate(-57.03 -241.93)"/><path class="cls-1" d="M523.21,377.68h3.25s6.56,5,2.38,11.35-27.44,45.14-27.44,45.14L292.74,551.88l-63.15-2s3.38-9.77-2.47-15c0,0-6.05,7.54,2.47,15" transform="translate(-57.03 -241.93)"/><path class="cls-1" d="M229.59,549.89" transform="translate(-57.03 -241.93)"/><path class="cls-1" d="M227.12,534.86,242,519.5l51.09-15s18.31,23.18,4.94,44.36" transform="translate(-57.03 -241.93)"/><path class="cls-1" d="M222.36,453.24s0-.21-.06-.55" transform="translate(-57.03 -241.93)"/><polyline class="cls-1" points="236.1 262.58 247.38 259.02 253.8 257 253.8 248.99 226.67 232.29 204.9 218.87"/><polygon class="cls-1" points="172.56 199.06 168.15 200.75 141 184.53 96.83 209.63 96.81 209.63 94.47 208.14 94.45 208.14 94.45 208.13 91.85 163.02 91.88 163.04 118.31 178.65 130.17 185.66 136.83 182.02 125.19 175.08 91.39 154.86 91.38 154.86 90.11 154.1 88.98 154.86 83.37 158 47.11 178.38 43.54 176.13 74.04 159.14 79.82 155.92 86.72 152.07 56.85 134.2 34.69 120.96 30.57 118.84 34.28 114.41 62.1 131.46 129.6 172.76 172.56 199.06"/><polyline class="cls-1" points="13.52 153.47 13.62 153.36 34.42 129.09"/><polyline class="cls-1" points="34.69 120.96 7.49 153.47 3.4 153.47 3.4 151.23 30.57 118.84"/><line class="cls-1" x1="178.39" y1="202.64" x2="172.56" y2="199.06"/><polyline class="cls-1" points="234.13 249.92 215.54 238.42 197.12 227.03"/><polyline class="cls-1" points="186.87 220.7 182.73 218.13 178.28 215.38"/><line class="cls-1" x1="79.82" y1="155.92" x2="73.71" y2="152.29"/><polyline class="cls-1" points="165.19 207.28 163.13 206.01 141.24 192.49"/><polygon class="cls-1" points="136.83 182.02 130.17 185.66 118.31 178.65 91.88 163.04 91.85 163.02 86.91 160.1 86.9 160.1 83.37 158 88.98 154.86 90.11 154.1 91.38 154.86 91.39 154.86 125.19 175.08 136.83 182.02"/><path class="cls-1" d="M229.67,453.82a44.24,44.24,0,0,0,.22,7.54l-5.83-3.09c4.05-.94,2.07-4.52,2.07-4.52l-3.77-1.1-.06,0a24,24,0,0,1-.07-3.49c.13-2.53.79-5.51,3-6.53l7.23,4.49a12.15,12.15,0,0,0-1.59,2A10.59,10.59,0,0,0,229.67,453.82Z" transform="translate(-57.03 -241.93)"/><path class="cls-1" d="M235.89,456.91l-.58.4-3.26,2.19-1.49,1.29-.67.57a44.24,44.24,0,0,1-.22-7.54,10.59,10.59,0,0,1,1.15-4.65,12.15,12.15,0,0,1,1.59-2l.72.43C231.29,452.23,235.89,456.91,235.89,456.91Z" transform="translate(-57.03 -241.93)"/><path class="cls-1" d="M248.5,434.66h0c-6.62,5-11.26,8.5-12.59,9.51a3.55,3.55,0,0,0-.47.4,7.19,7.19,0,0,0-2.29,3c-1.84,4.64,2.76,9.32,2.76,9.32l2.37-1.61a5.53,5.53,0,0,1-1.84-1.87,4.42,4.42,0,0,1-.17-3.9,9.73,9.73,0,0,1,2-3l.15-.15c1.29-1.27,6-5,12.69-10.15" transform="translate(-57.03 -241.93)"/><path class="cls-1" d="M364.39,378.55A33.79,33.79,0,0,1,362.31,389a15.91,15.91,0,0,1-1.57,3.16,43.65,43.65,0,0,1-8.26,9.58l-.05,0h0a71.82,71.82,0,0,1-5.72,4.59,91.47,91.47,0,0,1-8.64,5.51h0L332.3,415c-1.87.95-3.88,1.88-6,2.8-5.3,2.31-11.3,4.93-17.65,7.65l-6.49,2.79-2.88,1.23c-4.5,1.93-9.07,3.88-13.57,5.77-1.95.85-3.88,1.67-5.8,2.48l-4.2,1.78c-3.94,1.69-7.74,3.3-11.34,4.79l-12.89,5.47L247,451.63l-4.34,1.83h0l-4.36,1.84a5.53,5.53,0,0,1-1.84-1.87,4.42,4.42,0,0,1-.17-3.9,9.73,9.73,0,0,1,2-3l.15-.15c1.29-1.27,6-5,12.69-10.15,29.34-22.6,98-73.38,98-73.38a20,20,0,0,1,8.24,2.44,15.15,15.15,0,0,1,2.08,1.44,13.39,13.39,0,0,1,4.79,8.77A22.18,22.18,0,0,1,364.39,378.55Z" transform="translate(-57.03 -241.93)"/><line class="cls-1" x1="194.07" y1="216.8" x2="185.6" y2="211.54"/><polyline class="cls-1" points="204.38 223.18 222.66 234.5 243.1 247.15 185.02 265.06 157.75 247.93"/><polygon class="cls-1" points="204.9 218.87 200.9 221.02 193.69 224.92 154.69 246 151.01 243.69 190.72 223.09 198.06 219.26 202.11 217.16 203.91 218.26 204.9 218.87"/><polyline class="cls-1" points="47.11 178.38 52.9 182.02 76.65 196.95 79.66 198.84 88.96 204.68 88.96 204.69 88.98 204.69 88.98 204.71 94.45 208.13"/><polyline class="cls-1" points="96.83 209.63 104.38 214.37 108.37 216.89 108.4 216.89 126.26 228.15 129.84 230.39 135.83 234.15 139.66 236.55 142.96 238.63 148.04 241.82"/><polyline class="cls-1" points="153.08 250.41 183.63 269.13 248.57 250.5 253.8 248.99"/><path class="cls-1" d="M207,490.46,199.68,486,57.76,399l2.67-3.61h4.09l4.69,3,5.09,3.2,13.3,8.37h0l12.94,8.14h0" transform="translate(-57.03 -241.93)"/><line class="cls-1" x1="243.11" y1="247.14" x2="248.57" y2="250.49"/><line class="cls-1" x1="247.39" y1="259.02" x2="248.57" y2="250.49"/><line class="cls-1" x1="43.53" y1="176.13" x2="43.51" y2="176.13"/><polygon class="cls-1" points="86.72 152.07 73.7 152.29 66.95 148.32 49.55 138.03 34.42 129.09 34.69 120.96 56.85 134.2 86.72 152.07"/><polyline class="cls-1" points="7.49 153.47 13.62 153.36 20.51 153.24 61.98 152.5 73.7 152.29"/><line class="cls-1" x1="12.17" y1="156.43" x2="79.82" y2="155.92"/><line class="cls-1" x1="17.27" y1="159.63" x2="74.04" y2="159.14"/><line class="cls-1" x1="91.85" y1="163.02" x2="91.38" y2="154.86"/><line class="cls-1" x1="88.97" y1="204.69" x2="86.72" y2="156.17"/><line class="cls-1" x1="52.9" y1="182.03" x2="87.08" y2="163.92"/><line class="cls-1" x1="61.98" y1="152.51" x2="66.96" y2="148.32"/><path class="cls-1" d="M87.6,409.92s15.07-8.12,15.09-8.36" transform="translate(-57.03 -241.93)"/><path class="cls-1" d="M64.51,432.22s6.34.71,4.69,12.9C69.2,445.12,61.17,439.89,64.51,432.22Z" transform="translate(-57.03 -241.93)"/><path class="cls-1" d="M78.48,420.31s-7.87,11.31-14,11.91" transform="translate(-57.03 -241.93)"/><path class="cls-1" d="M69.2,445.12s45.89,3.21,50.32,1.5" transform="translate(-57.03 -241.93)"/><polyline class="cls-1" points="0.73 157.09 0.73 165.6 182.45 280.2"/><path class="cls-1" d="M132.64,411.92s8.35,15.05,1,27" transform="translate(-57.03 -241.93)"/><polyline class="cls-1" points="88.17 187.57 82.7 166.24 79.26 181.01"/><line class="cls-1" x1="144.73" y1="164.88" x2="129.6" y2="172.76"/><line class="cls-1" x1="93.52" y1="191.6" x2="118.32" y2="178.65"/><line class="cls-1" x1="79.66" y1="198.83" x2="88.48" y2="194.23"/><line class="cls-1" x1="298.31" y1="192.7" x2="292.63" y2="188.86"/><line class="cls-1" x1="330.99" y1="174.64" x2="317.79" y2="166.01"/><polygon class="cls-1" points="285.72 181.71 290.13 185.55 292.63 184.46 292.63 188.86 289.68 189.8 284.84 185.75 285.72 181.71 285.72 181.71"/><line class="cls-1" x1="295.39" y1="159.91" x2="290.13" y2="185.54"/><polyline class="cls-1" points="295.45 159.85 307.17 152.87 319.93 168.69 316.16 171.08 313.91 167.88 307.36 158.6 297.65 164.34 294.11 178.52 292.63 184.47"/><line class="cls-1" x1="285.72" y1="181.71" x2="289.68" y2="164.48"/><line class="cls-1" x1="339.98" y1="155.6" x2="352.26" y2="162.9"/><polyline class="cls-1" points="281.02 170.02 271.08 195.01 267.87 203.06 264.59 211.31"/><path class="cls-1" d="M332.3,415s-3.56,9.85-7.48,20c-1,2.7-2.12,5.43-3.16,8-1.63,4-3.16,7.63-4.39,10.19-1,2.06-1.78,3.43-2.24,3.71h0" transform="translate(-57.03 -241.93)"/><line class="cls-1" x1="228.68" y1="193.31" x2="262.44" y2="212.53"/><polyline class="cls-1" points="282.23 201.6 251.63 183.51 227.09 211.32"/><line class="cls-1" x1="242.26" y1="187.53" x2="273.45" y2="206.45"/><line class="cls-1" x1="10.67" y1="171.86" x2="10.67" y2="189.34"/><polyline class="cls-1" points="55.69 205.2 55.69 209.85 64.72 225.56 65.5 206.44"/><line class="cls-1" x1="130.17" y1="185.66" x2="94.46" y2="205.2"/><polygon class="cls-1" points="141.25 192.49 111.17 209.21 96.83 209.63 141 184.53 141.25 192.49"/><polyline class="cls-1" points="111.16 209.21 139.65 208.4 134.01 212.96 131.34 213.09 104.38 214.38 108.38 216.9 128.6 215.38 126.1 218.26 126.27 228.14"/><line class="cls-1" x1="128.59" y1="215.38" x2="131.34" y2="213.09"/><path class="cls-1" d="M196.69,450.33l9-5.85s16.81,1.66,16.69,18.83v10.78" transform="translate(-57.03 -241.93)"/><path class="cls-1" d="M199.68,486" transform="translate(-57.03 -241.93)"/><path class="cls-1" d="M183.13,460.18s9.71-4.81,15.15,4.88c0,0,3.26,4.25,1.72,15.5" transform="translate(-57.03 -241.93)"/><path class="cls-1" d="M205.07,483.74a67.71,67.71,0,0,0-1.34-18.25,12.52,12.52,0,0,0-1.35-3.51c-3.52-6.26-11.34-7.1-11.34-7.1" transform="translate(-57.03 -241.93)"/><path class="cls-1" d="M183.26,467.68s1.91-7.11,7.39-4.42,5.69,9.37,6,15.22" transform="translate(-57.03 -241.93)"/><path class="cls-1" d="M186.88,472.32s.8-4.05,3.1-3.22,2.84,4.48,2.89,7" transform="translate(-57.03 -241.93)"/><path class="cls-1" d="M262,456.15v1.46l-2.86,1.48-4,2.1L247.75,465,208,485.61l-3-1.87,4.45-2.43,20.35-11.05h0v0l5.13-2.79,8.88-4.82,7.2-3.9,3.94-2.16L247,451.63l4.51-1.88Z" transform="translate(-57.03 -241.93)"/><line class="cls-1" x1="161.92" y1="209.95" x2="145.35" y2="220.06"/><polyline class="cls-1" points="177.99 225.54 177.99 220.62 173.52 218.87"/><line class="cls-1" x1="182.72" y1="218.13" x2="177.99" y2="220.62"/><path class="cls-1" d="M209.52,481.31c-.21-10.77-1.48-16-1.48-16l13.43-8.41h0l2.57,1.36" transform="translate(-57.03 -241.93)"/><polyline class="cls-1" points="172.86 219.43 172.86 222.2 172.86 228.31"/><polyline class="cls-1" points="165.12 218.13 172.86 222.2 172.86 228.31"/><line class="cls-1" x1="172.84" y1="228.33" x2="165.33" y2="223.47"/><line class="cls-1" x1="165.27" y1="210.76" x2="163.13" y2="211.82"/><line class="cls-1" x1="160.02" y1="207.82" x2="163.12" y2="206.02"/><path class="cls-1" d="M164.65,474.94c-11.75,0-14.7,13.39-14.7,13.39l75.47,50.05" transform="translate(-57.03 -241.93)"/><polygon class="cls-1" points="204.97 222.86 204.38 223.18 197.12 227.03 157.75 247.93 154.69 246 193.69 224.92 200.9 221.02 204.9 218.87 204.97 222.86"/><line class="cls-1" x1="153.08" y1="250.41" x2="143.38" y2="255.56"/><line class="cls-1" x1="153.08" y1="250.41" x2="150.01" y2="248.53"/><line class="cls-1" x1="157.75" y1="247.93" x2="154.69" y2="246"/><polyline class="cls-1" points="142.65 244.03 140.43 253.7 150.01 248.53"/><line class="cls-1" x1="64.72" y1="225.56" x2="82.33" y2="217.06"/><line class="cls-1" x1="97.85" y1="237.22" x2="74.74" y2="220.73"/><line class="cls-1" x1="69.05" y1="223.47" x2="94.65" y2="241.82"/><path class="cls-1" d="M113.56,453.24s-4,1.3-3.11,7.56l6.68-1.36-5.38,27.9c-.5,2.61-4,3.4-5.39,1.11a2.33,2.33,0,0,1-.35-1.19" transform="translate(-57.03 -241.93)"/><line class="cls-1" x1="54.54" y1="218.65" x2="48.98" y2="245.34"/><polyline class="cls-1" points="73.53 226.68 73.53 234.15 54.99 244.03"/><path class="cls-1" d="M135.16,472v3.74c0,2.78-4.11,3.23-4.58.5,0,0,0-.09,0-.13" transform="translate(-57.03 -241.93)"/><path class="cls-1" d="M108.57,475l-14.21,8.75s-4.45,2,0,5.59,18.36,12.39,18.36,12.39L140.87,486s6.35-2.86,2.45-5.39c-4.62-3-8.16-5.56-8.16-5.56" transform="translate(-57.03 -241.93)"/><line class="cls-1" x1="181.93" y1="102.67" x2="183.64" y2="97.68"/><line class="cls-1" x1="187.16" y1="105.52" x2="187.16" y2="97.37"/><line class="cls-1" x1="191.23" y1="107.73" x2="190.5" y2="95.8"/><line class="cls-1" x1="294.11" y1="178.51" x2="313.9" y2="167.88"/><path class="cls-1" d="M311.53,366.47l15.47,9-2.63,2-16.06-9.19" transform="translate(-57.03 -241.93)"/><line class="cls-1" x1="263.89" y1="119.13" x2="254.5" y2="124.54"/><polyline class="cls-1" points="266.5 117.63 269.91 115.66 269.97 115.63"/><line class="cls-1" x1="251.28" y1="126.4" x2="236.31" y2="135.03"/><line class="cls-1" x1="241.26" y1="138.7" x2="236.97" y2="158.11"/><line class="cls-1" x1="188.66" y1="308.47" x2="198.4" y2="315.04"/><path class="cls-1" d="M256,550.72s-2.65,9.1,2.65,10.48a7.92,7.92,0,0,0,8.2-2.36" transform="translate(-57.03 -241.93)"/><path class="cls-1" d="M265,551s-6.16,2.12-2.36,5.12,11.9,6.69,11.9,6.69" transform="translate(-57.03 -241.93)"/><polyline class="cls-1" points="413.27 219.93 417.79 217.35 419.19 206.45"/><polyline class="cls-1" points="409.33 222.16 400.22 227.35 224.15 327.6 224.15 309.59"/><line class="cls-1" x1="236.64" y1="320.48" x2="248.74" y2="327.59"/><path class="cls-1" d="M268.39,551l8.54,16.29,12.46,6.52-6.77,25.49a8.85,8.85,0,0,0,4.82,3.52,2.06,2.06,0,0,0,2.41-1.45l7.57-26.22s-4.9-6.72-6.46-4l-1.57,2.69" transform="translate(-57.03 -241.93)"/><polyline class="cls-1" points="228.03 348.18 211.36 357.38 236.64 372.3 269.62 353.25 250.94 339.87"/><path class="cls-1" d="M308.44,576.6s2.74.72,2.33,2.65-3.28,1.18-3.28,1.18" transform="translate(-57.03 -241.93)"/><path class="cls-1" d="M310.73,578.39a2.17,2.17,0,0,0-.77-2.61s-4.22,1-2,6c0,0,1.23,1.19,1.83-1.42" transform="translate(-57.03 -241.93)"/><path class="cls-1" d="M310,575.78l-3.07-2c.34-6-3.93-5.14-3.93-5.14-8.5,5.41-4.69,11.49-4.69,11.49s1.76,2.57,4.76,0" transform="translate(-57.03 -241.93)"/><path class="cls-1" d="M303.71,582.07l3.61,8.92s4.07,1.19,4.52,0L308,581.8l-4.26.27s-1.25-4.77-3.18-4.17c0,0-.07-5.65,6.36-4.09" transform="translate(-57.03 -241.93)"/><line class="cls-1" x1="233.4" y1="357.41" x2="250.29" y2="349.06"/><path class="cls-1" d="M498.11,397.52l-1.47,25.31c-1.71-17.91-9.34-29.25-17.08-36.26Z" transform="translate(-57.03 -241.93)"/><polyline class="cls-1" points="350.51 102.09 405.09 134.33 405.11 134.35 405.13 134.35"/><line class="cls-1" x1="422.53" y1="144.65" x2="422.51" y2="144.63"/><polyline class="cls-1" points="447.54 154.49 448.92 153.87 481.33 119.85 481.33 108.77 479.59 107.75 299.2 0.53 240.85 14.62"/><line class="cls-1" x1="390.68" y1="125.83" x2="390.68" y2="141.51"/><polyline class="cls-1" points="476.62 111.57 476.24 111.35 472.49 109.09 435.82 87.15"/><polyline class="cls-1" points="433.94 86.02 429.7 83.48 297.02 4.04 244.69 16.76"/><line class="cls-1" x1="479.59" y1="107.75" x2="446.55" y2="143.08"/><line class="cls-1" x1="347.95" y1="91.03" x2="441.03" y2="145.73"/><path class="cls-1" d="M504.21,419.65s-4.07-17.63-6.1-22.13l-.05-9.87,5.52-2.65.63,9.79s.15.57.36,1.63A63.53,63.53,0,0,1,504.21,419.65Z" transform="translate(-57.03 -241.93)"/><polygon class="cls-1" points="444.3 139.18 442.73 140.84 438.05 138.1 435.99 120.97 431.94 87.13 433.94 86.02 435.82 87.13 435.82 87.15 437.16 95.37 440.91 118.41 444.3 139.18"/><polyline class="cls-1" points="346.42 84.61 386.73 108.15 390.4 110.29 396.34 113.75 421.56 128.48 438.05 138.1"/><line class="cls-1" x1="446.55" y1="143.08" x2="442.73" y2="140.84"/><polyline class="cls-1" points="472.49 109.09 468.12 113.75 444.3 139.18"/><line class="cls-1" x1="345.14" y1="78.85" x2="384" y2="56.11"/><line class="cls-1" x1="344.21" y1="74.79" x2="379.84" y2="53.62"/><polyline class="cls-1" points="385.39 56.94 385.2 64.2 416.98 83.12"/><line class="cls-1" x1="346.56" y1="85" x2="385.2" y2="64.2"/><polyline class="cls-1" points="351.06 82.57 429.72 83.48 386.73 108.14"/><line class="cls-1" x1="349.65" y1="86.5" x2="423.35" y2="87.14"/><line class="cls-1" x1="357.85" y1="91.28" x2="415.6" y2="91.58"/><line class="cls-1" x1="431.94" y1="87.13" x2="390.4" y2="110.29"/><line class="cls-1" x1="396.34" y1="113.76" x2="432.84" y2="94.69"/><line class="cls-1" x1="437.16" y1="95.36" x2="468.11" y2="113.76"/><line class="cls-1" x1="459.6" y1="108.7" x2="440.91" y2="118.41"/><line class="cls-1" x1="435.99" y1="120.96" x2="421.56" y2="128.48"/><path class="cls-1" d="M482.47,473.59s1-4.39-1.75-5.59-7.83,2.5-7.39,8.05,5.11,2.52,5.11,2.52l4.2,2.05s.26-5.66,2.87-5.11,1.74,4.46,1.74,4.46-.54,5.33-3.91,2.72a2.45,2.45,0,0,1-.7-2.07" transform="translate(-57.03 -241.93)"/><path class="cls-1" d="M478.44,478.57" transform="translate(-57.03 -241.93)"/><path class="cls-1" d="M485.51,475.51l-5.16-2.9s-5.93,1.29-1.91,6" transform="translate(-57.03 -241.93)"/><path class="cls-1" d="M470.3,461.85a6.19,6.19,0,0,0-3.94,2.23" transform="translate(-57.03 -241.93)"/><line class="cls-1" x1="423.7" y1="226.08" x2="413.27" y2="219.93"/><path class="cls-1" d="M466.36,464.08c-2.55,3.22-1.64,8.54-1.64,8.54l-7.46-3.35" transform="translate(-57.03 -241.93)"/><path class="cls-1" d="M474.13,478.57l-3.61-2s1.52-2.46-1.53-4.32-4.28.35-4.28.35l-11.82,29.91s-.22,3,4.15,3.66a1.42,1.42,0,0,0,1.51-.84l12-28.76" transform="translate(-57.03 -241.93)"/><polyline class="cls-1" points="419.2 237.45 423.31 250.28 427.31 249.18 423.69 237.76"/><line class="cls-1" x1="402.13" y1="261.95" x2="423.31" y2="250.28"/><polyline class="cls-1" points="400.19 249.64 385.93 258.78 409.4 274.29 439.61 256.12 441.31 255.16 426.48 246.57"/><line class="cls-1" x1="336.36" y1="27.58" x2="339.39" y2="71.77"/><line class="cls-1" x1="334.13" y1="26.25" x2="298.2" y2="47.11"/><path class="cls-1" d="M392.2,311.05c-.65-.41-3.34-41.54-3.34-41.54" transform="translate(-57.03 -241.93)"/><line class="cls-1" x1="302.72" y1="49.68" x2="331.83" y2="34.59"/><line class="cls-1" x1="336.84" y1="34.59" x2="374.25" y2="56.94"/><path class="cls-1" d="M365.28,294.74a5.82,5.82,0,0,0,2.19-7.05" transform="translate(-57.03 -241.93)"/><polyline class="cls-1" points="247.29 18.25 331.01 24.38 294.11 44.8"/><polyline class="cls-1" points="256.34 23.38 325.22 27.58 319.1 30.97 262.32 26.77"/><polyline class="cls-1" points="263.24 19.41 297.47 11.38 297.03 4.03"/><line class="cls-1" x1="316.16" y1="23.29" x2="297.47" y2="11.38"/><line class="cls-1" x1="281.17" y1="37.46" x2="295.24" y2="29.2"/><polyline class="cls-1" points="308.31 30.17 308.02 34.59 310.44 35.76"/><line class="cls-1" x1="286.89" y1="34.1" x2="308.02" y2="34.59"/><line class="cls-1" x1="276.18" y1="20.36" x2="289.15" y2="13.37"/></svg>