<svg id="Layer_1" data-name="Layer 1" xmlns="http://www.w3.org/2000/svg" viewBox="0 0 1278.78 1070.89"><defs><style>.cls-1,.cls-2,.cls-3,.cls-4,.cls-5{fill:none;stroke:#fff;stroke-miterlimit:10;stroke-width:2px;}.cls-2{stroke-dasharray:11.91 11.91;}.cls-3{stroke-dasharray:11.87 11.87;}.cls-4{stroke-dasharray:11.82 11.82;}.cls-5{stroke-dasharray:12;}</style></defs><title>GangHan1</title><path class="cls-1" d="M797.25,444.52c4.2,2.37,8.72,4.78,13.59,7.19Z" transform="translate(-283.56 -7.33)"/><line class="cls-1" x1="451.55" y1="358.37" x2="356.58" y2="304.36"/><line class="cls-1" x1="451.99" y1="355.91" x2="741.23" y2="527.78"/><path class="cls-1" d="M1046.57,527.63a35.08,35.08,0,0,0-5.58-4.83" transform="translate(-283.56 -7.33)"/><path class="cls-1" d="M1008.59,498.14c-10.85-8.18-24-18.1-38.51-29-3.84-2.86-7.77-5.86-11.8-8.9-2.94-2.19-5.89-4.42-8.93-6.7l-14.48-10.9c-29-21.85-59.74-45-86.19-65-2.46-1.83-4.91-3.66-7.28-5.45-4.07-3.08-8-6.07-11.84-8.93" transform="translate(-283.56 -7.33)"/><path class="cls-1" d="M823.35,358.56c-3-2.28-6-4.52-8.8-6.62-2-1.52-4-3-5.86-4.42-7.41-5.59-13.76-10.37-18.63-14l-6.39-4.82c-3.13-2.37-4.82-3.67-4.82-3.67a55.55,55.55,0,0,0-12.92,2.33,47.63,47.63,0,0,0-7.5,2.95,37.18,37.18,0,0,0-6.66,4.15" transform="translate(-283.56 -7.33)"/><polyline class="cls-1" points="609.26 319.72 605.06 313.02 590.63 290.23 584.69 280.8 579.86 276.33 507.88 209.58 499.84 202.12 489.56 199.22 435.1 183.8 428.22 181.84 425.04 183.8 369.77 218.12 368.52 223.93 368.52 223.97 366.11 235.41 353.78 293.98 380.23 392.46 383.54 399.07 405.85 441.51 395.78 448.09 374.56 403.14 370.94 395.23 345.56 294.83 349.71 276.87 355.74 250.78 359.23 235.72 362.36 222.05 364.59 212.44 375.94 205.34 385.9 199.08 426.92 173.35 502.97 192.38 591.7 271.6 599.17 283.53 614.22 307.66 618.47 314.45"/><line class="cls-1" x1="618.47" y1="314.45" x2="634.37" y2="339.87"/><polyline class="cls-1" points="651.31 435.26 631.56 358.64 629.95 352.47 609.26 319.72"/><line class="cls-1" x1="639.24" y1="347.69" x2="665.79" y2="446.17"/><polygon class="cls-1" points="643.94 50.25 720.16 70.62 807.02 144.44 858.27 226.07 867.12 260.61 884.32 327.67 866.94 406.67 877.35 402.34 894.73 325.08 878.91 266.77 866.94 222.58 816.58 140.1 729.72 64.55 652.47 45.47 643.94 50.25"/><polyline class="cls-1" points="643.94 50.25 612.62 68.03 593.18 79.02 571.87 91.13 557.75 99.13 513.33 124.33 482.82 141.67 482.77 141.67 473.17 147.12 462.49 153.19 449.39 160.61 426.92 173.35"/><polyline class="cls-1" points="667.71 100.07 667.71 100.02 648.4 59.63 643.94 50.25"/><line class="cls-1" x1="807.02" y1="144.44" x2="591.71" y2="271.61"/><line class="cls-1" x1="502.97" y1="192.38" x2="720.18" y2="70.63"/><line class="cls-1" x1="884.3" y1="327.67" x2="674.71" y2="452.88"/><line class="cls-1" x1="711.34" y1="75.59" x2="648.4" y2="59.63"/><line class="cls-1" x1="876.08" y1="332.58" x2="858.25" y2="406.69"/><polyline class="cls-1" points="687.59 513.5 653.95 533.92 653.95 533.92"/><polyline class="cls-1" points="866.94 406.67 860.82 410.29 860.82 410.33 826.77 430.48 805.37 443.17 800.81 445.9 745.76 478.52 725.08 490.8"/><polyline class="cls-1" points="660.82 502.21 652.73 539.51 643.12 539.51 640.98 534.65 650.9 498.01"/><line class="cls-1" x1="598.42" y1="475.63" x2="642.84" y2="527.78"/><line class="cls-1" x1="827.47" y1="361.62" x2="860.81" y2="410.32"/><line class="cls-1" x1="836.31" y1="374.54" x2="686.51" y2="461.77"/><line class="cls-1" x1="530.96" y1="344.59" x2="584.7" y2="280.83"/><line class="cls-1" x1="579.87" y1="276.35" x2="525.12" y2="340.19"/><line class="cls-1" x1="507.88" y1="209.56" x2="500.12" y2="321.35"/><polyline class="cls-1" points="492.81 317.71 499.85 202.11 452 232.51"/><line class="cls-1" x1="629.95" y1="352.47" x2="557.83" y2="364.83"/><line class="cls-1" x1="631.54" y1="358.65" x2="564.73" y2="370.38"/><line class="cls-1" x1="482.8" y1="321.35" x2="435.11" y2="183.79"/><line class="cls-1" x1="474.88" y1="322.96" x2="425.07" y2="183.79"/><line class="cls-1" x1="463.31" y1="330.53" x2="368.54" y2="223.93"/><line class="cls-1" x1="457.67" y1="335.68" x2="365.98" y2="235.22"/><line class="cls-1" x1="489.54" y1="199.19" x2="449.19" y2="224.42"/><line class="cls-1" x1="444.27" y1="237.44" x2="403.38" y2="263.12"/><polyline class="cls-1" points="452 351.24 353.79 293.99 395.54 267.61"/><line class="cls-1" x1="456.45" y1="383.12" x2="380.24" y2="392.47"/><polyline class="cls-1" points="383.55 399.09 460.16 390.58 452 396.69"/><path class="cls-1" d="M997.92,255a9.48,9.48,0,0,0,.58,1.08l12.33-7.2c9.47-2.72,7.95,6.12,7.95,6.12L1004,263.47a29.75,29.75,0,0,0,3,2.95,32.43,32.43,0,0,0,11.79,6.66,19.19,19.19,0,0,0,8.31.72,13.85,13.85,0,0,0,6.48-2.64c8.36-6.39,7.55-21.54-1.83-33.87a37.49,37.49,0,0,0-7.91-7.82c-8.35-6.21-18-7.68-24.22-2.9C992.42,232.06,992,244,997.92,255Z" transform="translate(-283.56 -7.33)"/><path class="cls-1" d="M1004,263.47l14.79-8.49s1.52-8.84-7.95-6.12l-12.33,7.2" transform="translate(-283.56 -7.33)"/><line class="cls-1" x1="614.22" y1="307.66" x2="714.93" y2="248.72"/><line class="cls-1" x1="576.29" y1="329.86" x2="605.06" y2="313.02"/><line class="cls-1" x1="583.88" y1="334.24" x2="609.26" y2="319.72"/><polyline class="cls-1" points="618.47 314.45 623.7 311.45 704.08 265.48 720.43 256.14"/><line class="cls-1" x1="789.03" y1="155.07" x2="740.29" y2="222.13"/><line class="cls-1" x1="623.68" y1="311.47" x2="652.69" y2="329.91"/><line class="cls-1" x1="652.78" y1="329.86" x2="704.08" y2="265.48"/><line class="cls-1" x1="803.59" y1="152.41" x2="746.76" y2="228.18"/><line class="cls-1" x1="723.44" y1="259.1" x2="668.44" y2="321.35"/><polyline class="cls-1" points="714.34 247.63 655.41 247.63 599.16 283.53"/><line class="cls-1" x1="590.63" y1="290.23" x2="570.57" y2="297.59"/><polyline class="cls-1" points="771.28 179.5 665.79 241.54 711.73 241.54"/><polyline class="cls-1" points="752.83 237.73 847.96 223.61 800.23 148.45"/><line class="cls-1" x1="827.39" y1="234.8" x2="755.19" y2="244.93"/><line class="cls-1" x1="424.87" y1="287.33" x2="455.07" y2="267.67"/><line class="cls-1" x1="385.9" y1="312.71" x2="417.76" y2="291.97"/><line class="cls-1" x1="462.53" y1="262.84" x2="497.52" y2="240.05"/><polyline class="cls-1" points="385.9 321.04 385.9 332.58 402.89 389.69 451.55 358.37"/><polyline class="cls-1" points="506.51 326.18 561.57 297.68 505.09 249.78"/><line class="cls-1" x1="440.88" y1="227.98" x2="391.97" y2="250.28"/><line class="cls-1" x1="1059.96" y1="361.68" x2="1128.51" y2="397.59"/><line class="cls-1" x1="878.92" y1="266.78" x2="1030.35" y2="346.19"/><polygon class="cls-1" points="634.37 339.87 639.25 347.69 830.57 241.44 858.27 226.07 847.95 223.61 822.75 237.33 735.22 284.96 735.22 285 725.61 290.19 725.61 290.23 668.47 321.28 652.78 329.86 652.74 329.91 652.69 329.91 634.37 339.87"/><line class="cls-1" x1="819.93" y1="235.85" x2="822.75" y2="237.33"/><line class="cls-1" x1="743.53" y1="195.82" x2="755.01" y2="201.85"/><line class="cls-1" x1="763.28" y1="206.14" x2="807.87" y2="229.55"/><line class="cls-1" x1="830.57" y1="241.44" x2="867.12" y2="260.61"/><line class="cls-1" x1="826.75" y1="430.51" x2="801.46" y2="394.84"/><polyline class="cls-1" points="805.38 443.18 779.51 407.62 774.87 410.32 800.82 445.89"/><line class="cls-1" x1="745.78" y1="478.52" x2="719.61" y2="442.5"/><line class="cls-1" x1="643.12" y1="539.51" x2="608.08" y2="562.55"/><path class="cls-1" d="M463.31,384.65l0,0a114.78,114.78,0,0,1,41-24.26h.05l0,0c1.12-.36,1.74-.49,1.74-.49l173.14,95.61,77.43,42.81,37.62,20.82h.05l20.69,11.44,26,14.34,10.46,5.81h0l73.9,40.84L935,596.7l16.8,9.25,91.19,50.4" transform="translate(-283.56 -7.33)"/><path class="cls-1" d="M360.3,363.66h-7.67s-15.49,11.79-5.64,26.79S411.77,497,411.77,497L904.2,774.76l149-4.69s-8-23.05,5.83-35.47c0,0,14.28,17.8-5.83,35.47" transform="translate(-283.56 -7.33)"/><path class="cls-1" d="M1053.24,770.07" transform="translate(-283.56 -7.33)"/><path class="cls-1" d="M1059.07,734.6l-35.22-36.25L903.27,663s-43.2,54.7-11.65,104.7" transform="translate(-283.56 -7.33)"/><path class="cls-1" d="M1070.3,542s0-.49.13-1.3" transform="translate(-283.56 -7.33)"/><polyline class="cls-1" points="619.72 655.63 593.09 647.23 577.94 642.45 577.94 623.55 641.97 584.14 693.35 552.46"/><polyline class="cls-1" points="1145 398.14 1144.76 397.86 1095.66 340.59"/><polyline class="cls-1" points="1095.05 321.41 1159.23 398.14 1168.88 398.14 1168.88 392.85 1104.77 316.4"/><line class="cls-1" x1="755.92" y1="514.17" x2="769.66" y2="505.72"/><polyline class="cls-1" points="624.37 625.75 668.24 598.62 711.72 571.72"/><polyline class="cls-1" points="735.89 556.8 745.67 550.72 756.17 544.24"/><path class="cls-1" d="M1257.43,402.2a.41.41,0,0,0-.2.77l14.86,8.28h0l159.61,1.2h0l11.06-7-14.46-.28-16.25-.27-97.89-1.76h0l-27.64-.48Z" transform="translate(-283.56 -7.33)"/><polyline class="cls-1" points="787.05 525.12 791.92 522.13 843.57 490.22"/><polygon class="cls-1" points="966.91 519.05 966.91 519.01 966.95 519.01 968.1 494.33 971.4 422.79 971.83 413.77 971.79 413.77 960.14 420.68 954 527.12 966.91 519.05"/><polygon class="cls-1" points="853.98 465.51 869.71 474.09 869.72 474.1 897.68 457.54 960.09 420.71 960.14 420.68 961.25 401.4 961.22 401.4 881.47 449.13 853.98 465.51"/><path class="cls-1" d="M1053.05,543.36a104.47,104.47,0,0,1-.53,17.78l13.76-7.28c-9.56-2.24-4.87-10.68-4.87-10.68l8.89-2.59.13.08a55,55,0,0,0,.18-8.22c-.31-6-1.87-13-7-15.41l-17.07,10.59a29.4,29.4,0,0,1,3.76,4.73C1052,535,1052.74,539.07,1053.05,543.36Z" transform="translate(-283.56 -7.33)"/><path class="cls-1" d="M1038.35,550.64l1.39.94,7.68,5.18,3.53,3,1.57,1.34a104.47,104.47,0,0,0,.53-17.78c-.31-4.29-1.07-8.4-2.72-11a29.4,29.4,0,0,0-3.76-4.73l-1.69,1C1049.21,539.6,1038.35,550.64,1038.35,550.64Z" transform="translate(-283.56 -7.33)"/><path class="cls-1" d="M1008.59,498.14h0c15.64,11.84,26.58,20.06,29.71,22.43a11.15,11.15,0,0,1,1.12.94,17,17,0,0,1,5.41,7.15c4.33,10.94-6.53,22-6.53,22l-5.58-3.8a12.92,12.92,0,0,0,4.33-4.42,10.4,10.4,0,0,0,.4-9.21,22.69,22.69,0,0,0-4.73-7l-.36-.36c-3-3-14.07-11.75-29.94-24" transform="translate(-283.56 -7.33)"/><path class="cls-1" d="M735.1,365.7c.09,6.89,1.57,15.11,4.92,24.76a37.24,37.24,0,0,0,3.71,7.46c3.26,5.41,9.2,13.36,19.48,22.61l.13.09v0a166.75,166.75,0,0,0,13.49,10.81,210.6,210.6,0,0,0,20.38,13l0,0,13.59,7.19c4.42,2.24,9.16,4.43,14.16,6.62,12.51,5.45,26.68,11.61,41.64,18.05q7.58,3.21,15.33,6.57l6.79,2.9c10.63,4.56,21.4,9.16,32,13.63,4.6,2,9.16,3.93,13.67,5.85,3.35,1.43,6.66,2.82,9.92,4.2,9.29,4,18.27,7.78,26.76,11.31l30.43,12.91c3.84,1.61,7.42,3.08,10.63,4.42l10.24,4.34h0l10.28,4.33a12.92,12.92,0,0,0,4.33-4.42,10.4,10.4,0,0,0,.4-9.21,22.69,22.69,0,0,0-4.73-7l-.36-.36c-3-3-14.07-11.75-29.94-24C933.22,448.54,771.2,328.71,771.2,328.71a47.21,47.21,0,0,0-19.43,5.76,36.3,36.3,0,0,0-4.92,3.4c-5.4,4.42-9.92,11-11.3,20.69A51.89,51.89,0,0,0,735.1,365.7Z" transform="translate(-283.56 -7.33)"/><line class="cls-1" x1="718.91" y1="547.59" x2="738.88" y2="535.17"/><polyline class="cls-1" points="694.56 562.65 651.44 589.37 603.19 619.22 740.27 661.49 804.61 621.05"/><polygon class="cls-1" points="693.35 552.46 702.78 557.56 719.8 566.76 811.85 616.49 820.51 611.04 726.82 562.43 709.48 553.4 699.92 548.44 695.68 551.03 693.35 552.46"/><polyline class="cls-1" points="966.95 519.01 966.96 519.01 966.96 518.98 988.9 505.2 988.91 505.19 996 500.75 996 500.74 996.02 500.73 1052.06 465.52 1052.07 465.51 1065.73 456.92"/><polyline class="cls-1" points="948.4 530.66 930.57 541.86 921.15 547.81 921.08 547.81 878.92 574.37 870.47 579.66 856.35 588.52 847.31 594.19 839.51 599.11 827.52 606.63"/><polyline class="cls-1" points="815.64 626.9 743.53 671.09 590.27 627.13 577.94 623.55"/><path class="cls-1" d="M1357.73,459h0l30.52-19.22h0L1419.68,420l0,0,12-7.54" transform="translate(-283.56 -7.33)"/><polyline class="cls-1" points="1159.22 398.14 1159.24 398.13 1168.88 398.13 1168.89 398.13 1175.19 406.67 1175.17 406.68 840.26 611.84 822.88 622.48"/><line class="cls-1" x1="603.17" y1="619.2" x2="590.28" y2="627.11"/><line class="cls-1" x1="593.07" y1="647.22" x2="590.28" y2="627.11"/><line class="cls-1" x1="1074.17" y1="451.62" x2="1074.21" y2="451.62"/><path class="cls-1" d="M1257.53,402.21l29,.48,15.93-9.38h0L1343.53,369l35.7-21.1-.62-19.17L1326.31,360l-69,41.31A.49.49,0,0,0,1257.53,402.21Z" transform="translate(-283.56 -7.33)"/><line class="cls-1" x1="1148.15" y1="405.11" x2="1148.19" y2="405.11"/><line class="cls-1" x1="1136.14" y1="412.68" x2="1002.17" y2="411.51"/><line class="cls-1" x1="971.83" y1="413.77" x2="972.26" y2="413.77"/><polygon class="cls-1" points="769.66 505.71 780.08 509.7 844.15 471.42 948.39 530.66 948.43 530.66 953.97 527.16 954 527.16 954 527.12 960.14 420.68 960.09 420.71 897.68 457.54 869.72 474.1 869.71 474.09 853.98 465.51 881.47 449.13 961.22 401.4 961.25 401.4 960.14 420.68 971.79 413.77 971.84 413.77 980.14 408.82 1065.73 456.92 1074.15 451.6 1002.2 411.51 1002.17 411.5 988.53 403.91 988.52 403.91 972.25 394.84 1042.74 352.64 1095.05 321.41 1104.77 316.4 1096.01 305.95 1030.35 346.18 871.05 443.66 871.04 443.66 769.66 505.71"/><line class="cls-1" x1="966.95" y1="519.02" x2="966.95" y2="519.01"/><line class="cls-1" x1="1052.07" y1="465.52" x2="971.41" y2="422.79"/><line class="cls-1" x1="1030.65" y1="395.86" x2="1018.89" y2="385.97"/><path class="cls-1" d="M1388.32,439.74s-35.57-19.15-35.6-19.73" transform="translate(-283.56 -7.33)"/><path class="cls-1" d="M1442.82,492.36s-15,1.69-11.08,30.46C1431.74,522.82,1450.71,510.48,1442.82,492.36Z" transform="translate(-283.56 -7.33)"/><path class="cls-1" d="M1409.84,464.26s18.57,26.71,33,28.1" transform="translate(-283.56 -7.33)"/><path class="cls-1" d="M1431.74,522.82s-108.29,7.57-118.74,3.53" transform="translate(-283.56 -7.33)"/><polyline class="cls-1" points="1175.17 406.69 1175.17 426.76 746.32 697.22"/><path class="cls-1" d="M1282,444.46s-19.71,35.51-2.46,63.63" transform="translate(-283.56 -7.33)"/><line class="cls-1" x1="835.36" y1="425.06" x2="871.05" y2="443.67"/><line class="cls-1" x1="956.21" y1="488.12" x2="897.68" y2="457.56"/><line class="cls-1" x1="988.92" y1="505.19" x2="968.1" y2="494.33"/><line class="cls-1" x1="472.9" y1="490.71" x2="486.3" y2="481.64"/><line class="cls-1" x1="395.78" y1="448.09" x2="426.92" y2="427.71"/><polygon class="cls-1" points="502.62 464.77 492.2 473.83 486.29 471.26 486.29 481.65 493.26 483.87 504.69 474.32 502.62 464.77 502.62 464.77"/><line class="cls-1" x1="479.78" y1="413.33" x2="492.2" y2="473.82"/><polyline class="cls-1" points="479.64 413.19 451.99 396.71 421.87 434.06 430.76 439.69 436.08 432.14 451.54 410.24 474.46 423.78 482.82 457.25 486.3 471.28"/><line class="cls-1" x1="502.62" y1="464.77" x2="493.26" y2="424.1"/><line class="cls-1" x1="374.55" y1="403.16" x2="345.57" y2="420.4"/><polyline class="cls-1" points="513.69 437.19 537.15 496.17 544.74 515.15 552.47 534.64"/><path class="cls-1" d="M810.84,451.71s8.4,23.24,17.65,47.19c2.45,6.39,5,12.82,7.46,18.94,3.84,9.48,7.46,18,10.36,24,2.37,4.87,4.2,8.09,5.28,8.76h0" transform="translate(-283.56 -7.33)"/><line class="cls-1" x1="637.23" y1="492.14" x2="557.55" y2="537.51"/><polyline class="cls-1" points="510.85 511.71 583.06 469.03 640.98 534.65"/><line class="cls-1" x1="605.18" y1="478.52" x2="531.56" y2="523.15"/><line class="cls-1" x1="1151.73" y1="441.54" x2="1151.73" y2="482.78"/><polyline class="cls-1" points="1045.48 520.2 1045.48 531.19 1024.16 568.26 1022.33 523.15"/><line class="cls-1" x1="869.72" y1="474.1" x2="953.98" y2="520.2"/><polygon class="cls-1" points="843.57 490.22 843.58 490.22 914.55 529.66 948.39 530.66 844.15 471.42 843.57 490.22"/><polyline class="cls-1" points="914.57 529.68 847.32 527.75 860.64 538.52 866.94 538.84 930.56 541.87 921.14 547.82 873.42 544.24 879.32 551.03 878.91 574.36"/><line class="cls-1" x1="873.43" y1="544.23" x2="866.93" y2="538.83"/><path class="cls-1" d="M1130.87,535.11l-21.15-13.8s-39.69,3.91-39.41,44.44v25.43" transform="translate(-283.56 -7.33)"/><path class="cls-1" d="M1123.82,619.18" transform="translate(-283.56 -7.33)"/><path class="cls-1" d="M1162.89,558.36S1140,547,1127.12,569.88c0,0-7.7,10-4,36.58" transform="translate(-283.56 -7.33)"/><path class="cls-1" d="M1111.09,614a160.07,160.07,0,0,1,3.18-43.07,29.54,29.54,0,0,1,3.17-8.27c8.31-14.79,26.76-16.75,26.76-16.75" transform="translate(-283.56 -7.33)"/><path class="cls-1" d="M1162.57,576.06s-4.51-16.79-17.44-10.42-13.42,22.09-14.26,35.91" transform="translate(-283.56 -7.33)"/><path class="cls-1" d="M1154,587s-1.89-9.55-7.31-7.59S1140,590,1139.9,595.88" transform="translate(-283.56 -7.33)"/><path class="cls-1" d="M976.74,548.85v3.44l6.74,3.49,9.57,5,17.33,9,93.7,48.61,7-4.42-10.5-5.72-48-26.09h0v0l-12.11-6.56-21-11.4-17-9.2-9.29-5.1,19-11.66c-3.21-1.34-6.79-2.81-10.63-4.42Z" transform="translate(-283.56 -7.33)"/><line class="cls-1" x1="794.78" y1="531.42" x2="833.87" y2="555.28"/><polyline class="cls-1" points="756.85 568.22 756.85 556.6 767.39 552.48"/><line class="cls-1" x1="745.69" y1="550.72" x2="756.85" y2="556.6"/><path class="cls-1" d="M1100.59,608.23c.49-25.42,3.49-37.75,3.49-37.75l-31.68-19.84h-.05l-6.07,3.22" transform="translate(-283.56 -7.33)"/><polyline class="cls-1" points="768.95 553.8 768.95 560.33 768.95 574.76"/><polyline class="cls-1" points="787.23 550.72 768.95 560.33 768.95 574.76"/><line class="cls-1" x1="769" y1="574.8" x2="786.74" y2="563.32"/><line class="cls-1" x1="786.87" y1="533.34" x2="791.92" y2="535.84"/><line class="cls-1" x1="799.25" y1="526.4" x2="791.94" y2="522.14"/><path class="cls-1" d="M1206.48,593.18c27.73.06,34.7,31.6,34.7,31.6L1063.07,742.91" transform="translate(-283.56 -7.33)"/><polygon class="cls-1" points="693.17 561.89 694.56 562.65 711.72 571.72 804.61 621.05 811.85 616.49 719.8 566.76 702.78 557.56 693.35 552.46 693.17 561.89"/><line class="cls-1" x1="815.64" y1="626.9" x2="838.52" y2="639.06"/><line class="cls-1" x1="815.64" y1="626.9" x2="822.88" y2="622.48"/><line class="cls-1" x1="804.61" y1="621.05" x2="811.85" y2="616.49"/><polyline class="cls-1" points="840.26 611.84 845.49 634.68 822.88 622.48"/><line class="cls-1" x1="1024.16" y1="568.26" x2="982.6" y2="548.21"/><line class="cls-1" x1="945.99" y1="595.78" x2="1000.53" y2="556.86"/><line class="cls-1" x1="1013.95" y1="563.33" x2="953.52" y2="606.64"/><path class="cls-1" d="M1327.05,542s9.52,3.06,7.35,17.84l-15.76-3.2,12.69,65.84c1.19,6.14,9.56,8,12.71,2.61a5.48,5.48,0,0,0,.83-2.8" transform="translate(-283.56 -7.33)"/><line class="cls-1" x1="1048.19" y1="551.95" x2="1061.31" y2="614.94"/><polyline class="cls-1" points="1003.38 570.91 1003.38 588.54 1047.13 611.84"/><path class="cls-1" d="M1276.08,586.18V595c0,6.55,9.7,7.63,10.81,1.17,0-.1,0-.2,0-.3" transform="translate(-283.56 -7.33)"/><path class="cls-1" d="M1338.84,593.34l29.76,16.74s26.07,13.43,15.58,21.94-50.41,31-50.41,31l-71.15-43.79s-15-6.76-5.8-12.72c10.91-7.07,19.26-13.12,19.26-13.12" transform="translate(-283.56 -7.33)"/><line class="cls-1" x1="747.54" y1="278.25" x2="743.53" y2="266.46"/><line class="cls-1" x1="735.22" y1="284.96" x2="735.22" y2="265.75"/><line class="cls-1" x1="725.61" y1="290.19" x2="727.33" y2="262.03"/><line class="cls-1" x1="482.8" y1="457.23" x2="436.09" y2="432.15"/><path class="cls-1" d="M859.85,337.2l-36.5,21.36c2,1.51,4.06,3.08,6.21,4.69l37.89-21.67" transform="translate(-283.56 -7.33)"/><line class="cls-1" x1="554.13" y1="317.08" x2="576.29" y2="329.86"/><polyline class="cls-1" points="547.96 313.55 539.92 308.91 539.78 308.82"/><line class="cls-1" x1="583.88" y1="334.24" x2="619.23" y2="354.62"/><line class="cls-1" x1="607.54" y1="363.27" x2="617.67" y2="409.07"/><line class="cls-1" x1="731.68" y1="763.93" x2="708.68" y2="779.45"/><path class="cls-1" d="M990.91,772s6.25,21.48-6.25,24.74-19.37-5.58-19.37-5.58" transform="translate(-283.56 -7.33)"/><path class="cls-1" d="M969.58,772.7s14.54,5,5.57,12.09S947,800.57,947,800.57" transform="translate(-283.56 -7.33)"/><polyline class="cls-1" points="201.59 554.97 190.92 548.89 187.61 523.15"/><polyline class="cls-1" points="210.89 560.24 232.38 572.48 647.91 809.07 647.91 766.57"/><line class="cls-1" x1="618.44" y1="792.28" x2="589.89" y2="809.05"/><path class="cls-1" d="M961.67,772.7,941.5,811.15l-29.4,15.37,16,60.16s-4.3,6.69-11.37,8.32a4.87,4.87,0,0,1-5.68-3.44l-17.86-61.87s11.56-15.86,15.25-9.52l3.69,6.35" transform="translate(-283.56 -7.33)"/><polyline class="cls-1" points="638.75 857.64 678.11 879.35 618.44 914.58 540.61 869.61 584.69 838.03"/><path class="cls-1" d="M867.14,833.11s-6.46,1.7-5.49,6.26,7.73,2.78,7.73,2.78" transform="translate(-283.56 -7.33)"/><path class="cls-1" d="M861.73,837.34c-1.37-4.27,1.82-6.17,1.82-6.17s10,2.39,4.7,14.2c0,0-2.9,2.81-4.32-3.35" transform="translate(-283.56 -7.33)"/><path class="cls-1" d="M863.55,831.17l7.25-4.65c-.79-14.2,9.29-12.12,9.29-12.12,20,12.76,11,27.12,11,27.12s-4.16,6.05-11.24,0" transform="translate(-283.56 -7.33)"/><path class="cls-1" d="M878.31,846l-8.53,21s-9.59,2.81-10.65,0l9.12-21.69,10.06.64s2.94-11.25,7.5-9.84c0,0,.18-13.33-15-9.65" transform="translate(-283.56 -7.33)"/><line class="cls-1" x1="626.08" y1="879.43" x2="586.22" y2="859.73"/><path class="cls-1" d="M419.52,410.47,423,470.21c4-42.27,22-69,40.3-85.56Z" transform="translate(-283.56 -7.33)"/><polyline class="cls-1" points="349.71 276.87 220.9 352.96 220.85 353.01 220.81 353.01"/><line class="cls-1" x1="179.75" y1="377.31" x2="179.79" y2="377.27"/><polyline class="cls-1" points="120.72 400.55 117.46 399.07 40.97 318.78 40.97 292.64 45.08 290.23 470.8 37.2 608.5 70.45"/><line class="cls-1" x1="254.92" y1="332.89" x2="254.92" y2="369.92"/><polyline class="cls-1" points="52.09 299.26 52.99 298.72 61.83 293.4 148.38 241.62"/><polyline class="cls-1" points="152.8 238.94 162.81 232.95 475.94 45.47 599.43 75.49"/><line class="cls-1" x1="45.08" y1="290.23" x2="123.05" y2="373.61"/><line class="cls-1" x1="355.74" y1="250.78" x2="136.07" y2="379.87"/><path class="cls-1" d="M405.13,462.71s9.61-41.6,14.39-52.24l.14-23.27-13.05-6.26L405.13,404s-.35,1.34-.84,3.84C402.77,416,400,436.48,405.13,462.71Z" transform="translate(-283.56 -7.33)"/><polygon class="cls-1" points="128.36 364.4 132.07 368.33 143.11 361.86 147.98 321.42 157.54 241.57 152.8 238.94 148.38 241.57 148.38 241.62 145.21 261.01 136.36 315.39 128.36 364.4"/><polyline class="cls-1" points="359.36 235.63 264.24 291.17 255.57 296.22 241.54 304.39 182.03 339.16 143.11 361.86"/><line class="cls-1" x1="123.05" y1="373.61" x2="132.07" y2="368.33"/><polyline class="cls-1" points="61.83 293.4 72.15 304.39 128.36 364.4"/><line class="cls-1" x1="362.37" y1="222.04" x2="270.67" y2="168.36"/><line class="cls-1" x1="364.58" y1="212.45" x2="280.49" y2="162.48"/><polyline class="cls-1" points="267.39 170.32 267.84 187.47 192.84 232.1"/><line class="cls-1" x1="359.04" y1="236.54" x2="267.84" y2="187.47"/><polyline class="cls-1" points="348.4 230.82 162.78 232.97 264.23 291.16"/><line class="cls-1" x1="351.74" y1="240.07" x2="177.81" y2="241.59"/><line class="cls-1" x1="332.38" y1="251.37" x2="196.09" y2="252.07"/><line class="cls-1" x1="157.54" y1="241.57" x2="255.57" y2="296.22"/><line class="cls-1" x1="241.55" y1="304.41" x2="155.42" y2="259.41"/><line class="cls-1" x1="145.22" y1="260.99" x2="72.16" y2="304.41"/><line class="cls-1" x1="92.26" y1="292.47" x2="136.36" y2="315.39"/><line class="cls-1" x1="147.98" y1="321.42" x2="182.02" y2="339.16"/><path class="cls-1" d="M456.45,590s-2.31-10.35,4.11-13.18,18.49,5.91,17.46,19S466,601.75,466,601.75L456,606.6s-.62-13.35-6.78-12.07-4.11,10.53-4.11,10.53,1.28,12.59,9.24,6.42A5.73,5.73,0,0,0,456,606.6" transform="translate(-283.56 -7.33)"/><path class="cls-1" d="M466,601.75" transform="translate(-283.56 -7.33)"/><path class="cls-1" d="M449.26,594.53l12.19-6.83s14,3,4.5,14" transform="translate(-283.56 -7.33)"/><path class="cls-1" d="M485.16,562.3a14.58,14.58,0,0,1,9.29,5.27" transform="translate(-283.56 -7.33)"/><line class="cls-1" x1="176.98" y1="569.49" x2="201.59" y2="554.97"/><path class="cls-1" d="M494.45,567.57c6,7.6,3.89,20.15,3.89,20.15l17.6-7.9" transform="translate(-283.56 -7.33)"/><path class="cls-1" d="M476.13,601.75l8.51-4.7s-3.58-5.79,3.6-10.19,10.11.84,10.11.84l27.91,70.57s.51,7.13-9.8,8.64a3.33,3.33,0,0,1-3.57-2l-28.25-67.88" transform="translate(-283.56 -7.33)"/><polyline class="cls-1" points="187.6 596.32 177.89 626.61 168.46 624.01 176.99 597.06"/><line class="cls-1" x1="227.89" y1="654.14" x2="177.89" y2="626.61"/><polyline class="cls-1" points="232.47 625.09 266.11 646.65 210.89 680.25 142.71 641.02 132.58 635.19 170.41 617.85"/><line class="cls-1" x1="383.11" y1="101.03" x2="375.94" y2="205.33"/><line class="cls-1" x1="388.37" y1="97.88" x2="473.16" y2="147.13"/><path class="cls-1" d="M669.47,206.41c1.55-1,7.88-98,7.88-98" transform="translate(-283.56 -7.33)"/><line class="cls-1" x1="462.5" y1="153.18" x2="393.79" y2="117.57"/><line class="cls-1" x1="381.97" y1="117.57" x2="293.69" y2="170.32"/><path class="cls-1" d="M733,167.93s-8.92-5.24-5.16-16.65" transform="translate(-283.56 -7.33)"/><polyline class="cls-1" points="593.29 79 395.73 93.47 482.8 141.67"/><polyline class="cls-1" points="571.94 91.11 409.39 101.03 423.82 109.02 557.83 99.11"/><polyline class="cls-1" points="555.66 81.76 474.88 62.8 475.93 45.45"/><line class="cls-1" x1="430.76" y1="90.91" x2="474.88" y2="62.8"/><line class="cls-1" x1="513.34" y1="124.34" x2="480.14" y2="104.86"/><polyline class="cls-1" points="449.31 107.14 449.98 117.57 444.27 120.34"/><line class="cls-1" x1="499.85" y1="116.43" x2="449.97" y2="117.57"/><line class="cls-1" x1="525.12" y1="84" x2="494.51" y2="67.5"/><line class="cls-1" x1="0.5" y1="559.18" x2="5.7" y2="562.17"/><line class="cls-2" x1="16.02" y1="568.11" x2="877.82" y2="1064.06"/><line class="cls-1" x1="882.98" y1="1067.03" x2="888.18" y2="1070.02"/><line class="cls-1" x1="878.83" y1="266.94" x2="884.14" y2="269.72"/><line class="cls-3" x1="894.65" y1="275.23" x2="1267.75" y2="470.76"/><line class="cls-1" x1="1273" y1="473.51" x2="1278.32" y2="476.3"/><line class="cls-1" x1="371.17" y1="0.89" x2="376.48" y2="3.67"/><line class="cls-4" x1="386.95" y1="9.16" x2="444.52" y2="39.33"/><line class="cls-1" x1="449.76" y1="42.07" x2="455.07" y2="44.86"/><line class="cls-5" x1="547.15" y1="958.08" x2="1189.79" y2="571.72"/><line class="cls-5" x1="155.13" y1="713.78" x2="313.48" y2="618.58"/><path class="cls-1" d="M1222.78,762.42l286.36-172.2a.31.31,0,0,0-.17-.57l-20.2.62" transform="translate(-283.56 -7.33)"/><path class="cls-1" d="M1222.78,762.42l286.36-172.2a.31.31,0,0,1,.43.43l-10,17.54" transform="translate(-283.56 -7.33)"/><path class="cls-1" d="M1500.41,609.63" transform="translate(-283.56 -7.33)"/><path class="cls-1" d="M1221.85,763,935.49,935.18a.31.31,0,0,1-.43-.42l10-17.55" transform="translate(-283.56 -7.33)"/><path class="cls-1" d="M1221.85,763,935.49,935.18a.31.31,0,0,0,.17.58l20.2-.63" transform="translate(-283.56 -7.33)"/><path class="cls-1" d="M956.72,936.57" transform="translate(-283.56 -7.33)"/><path class="cls-1" d="M762.48,870.38,472.59,704.2a.31.31,0,0,0-.42.43L482.56,722" transform="translate(-283.56 -7.33)"/><path class="cls-1" d="M762.48,870.38,472.59,704.2a.32.32,0,0,1,.16-.59l20.21.21" transform="translate(-283.56 -7.33)"/><path class="cls-1" d="M493.79,702.36" transform="translate(-283.56 -7.33)"/><path class="cls-1" d="M584.94,768.56,874.83,934.75a.31.31,0,0,1-.15.58l-20.21-.2" transform="translate(-283.56 -7.33)"/><path class="cls-1" d="M584.94,768.56,874.83,934.75a.32.32,0,0,0,.43-.43L864.87,917" transform="translate(-283.56 -7.33)"/><path class="cls-1" d="M865.7,915.53" transform="translate(-283.56 -7.33)"/></svg>