<?xml version="1.0" encoding="utf-8"?>
<!-- Generator: Adobe Illustrator 23.0.4, SVG Export Plug-In . SVG Version: 6.00 Build 0)  -->
<svg version="1.1" id="Layer_1" xmlns="http://www.w3.org/2000/svg" xmlns:xlink="http://www.w3.org/1999/xlink" x="0px" y="0px"
	 viewBox="0 0 128.6 70.7" style="enable-background:new 0 0 128.6 70.7;" xml:space="preserve">
<style type="text/css">
	.st0{opacity:0.3;}
	.st1{filter:url(#Adobe_OpacityMaskFilter);}
	.st2{mask:url(#SVGID_1_);}
	.st3{fill:#FFFFFF;}
</style>
<title>hamburger_01</title>
<g class="st0">
	<defs>
		<filter id="Adobe_OpacityMaskFilter" filterUnits="userSpaceOnUse" x="12.4" y="7.5" width="113.9" height="62.6">
			<feFlood  style="flood-color:white;flood-opacity:1" result="back"/>
			<feBlend  in="SourceGraphic" in2="back" mode="normal"/>
		</filter>
	</defs>
	<mask maskUnits="userSpaceOnUse" x="12.4" y="7.5" width="113.9" height="62.6" id="SVGID_1_">
		<g class="st1">
			
				<image style="overflow:visible;" width="119" height="68" xlink:href="D0D71E7258A6D706.jpg"  transform="matrix(1 0 0 1 10 4.71)">
			</image>
		</g>
	</mask>
	<g class="st2">
		<path d="M120.3,58.1h-7l0-18.5l-11.7-20.4L81.2,7.5h-1.5l-0.2-0.1l0,0.1H59.3l0-0.1L59,7.5h-1.4l-1.2,0.7l-0.1,0l0,0L38.8,18.4
			l0,0l-0.1,0.1l-1.4,0.8L25.6,39.6v18.5h-7.2c-3.3,0-6,2.7-6,6c0,3.3,2.7,6,6,6h101.9c3.3,0,6-2.7,6-6
			C126.2,60.8,123.6,58.1,120.3,58.1z M81.9,10l16.7,9.7l-21,21c-0.8-1.2-1.9-2.2-3.1-2.9L81.9,10z M77,41.3L76.3,42
			c-0.6-1-1.4-1.8-2.3-2.4l0.2-0.8C75.3,39.4,76.2,40.3,77,41.3z M79,9.3l-7.3,27.3c-0.6-0.1-1.3-0.2-2-0.3c-0.9,0-1.8,0.1-2.6,0.3
			L59.7,9.3H79z M71.4,37.6l-0.2,0.7c-0.7-0.2-1.4-0.2-2.1-0.2c-0.6,0-1.1,0.1-1.6,0.2l-0.2-0.7c0.7-0.2,1.4-0.3,2.1-0.3
			C70.1,37.3,70.8,37.4,71.4,37.6z M64.8,39.6c-0.9,0.6-1.7,1.5-2.3,2.4l-0.6-0.6c0.7-1.1,1.6-1.9,2.7-2.6L64.8,39.6z M56.9,10.1
			l7.4,27.7c-1.2,0.7-2.3,1.7-3.1,2.9l-21-21L56.9,10.1z M60.3,47v-0.6c0-0.7,0.1-1.4,0.3-2.1l0.8,0.8c-0.1,0.4-0.1,0.8-0.1,1.2v1
			L60.3,47z M61.2,50.4v1.3l-0.9,0.2v-1.8L61.2,50.4z M59.4,58.1H48.6l10.8-2.9V58.1z M59.4,52.1l-22.4,6h-9.7l0-16.8l32,8.6V52.1z
			 M59.4,46.1v0.7l-31.1-8.3L38,21.8l21.8,21.8C59.6,44.4,59.4,45.2,59.4,46.1z M78.5,57.7H60.3V55l0.9-0.2v2.1h16.5v-2.1l0.9,0.2
			V57.7z M78.5,51.9l-0.9-0.2v-1.3l0.9-0.2V51.9z M78.5,47l-0.9,0.2v-1c0-0.4-0.1-0.8-0.1-1.3l0.8-0.8c0.2,0.7,0.3,1.4,0.3,2.2V47z
			 M100.8,21.7l9.7,16.8l-31.1,8.3v-0.7c0-0.9-0.2-1.7-0.4-2.5L100.8,21.7z M79.4,58.1v-2.9l10.7,2.9H79.4z M111.5,58.1h-9.8
			l-22.3-6v-2.3l32.1-8.6V58.1z"/>
	</g>
</g>
<title>hamburger_01</title>
<path class="st3" d="M116.2,56.2h-7l0-18.5L97.4,17.4L77,5.6h-1.5l-0.2-0.1l0,0.1H55.1l0-0.1l-0.2,0.1h-1.4l-1.2,0.7l-0.1,0l0,0
	L34.7,16.5l0,0l-0.1,0.1l-1.4,0.8L21.4,37.7v18.5h-7.2c-3.3,0-6,2.7-6,6c0,3.3,2.7,6,6,6h101.9c3.3,0,6-2.7,6-6
	C122.1,58.9,119.5,56.2,116.2,56.2z M77.8,8.1l16.7,9.7l-21,21c-0.8-1.2-1.9-2.2-3.1-2.9L77.8,8.1z M72.8,39.4l-0.6,0.6
	c-0.6-1-1.4-1.8-2.3-2.4l0.2-0.8C71.2,37.5,72.1,38.4,72.8,39.4z M74.9,7.4l-7.3,27.3c-0.6-0.1-1.3-0.2-2-0.3
	c-0.9,0-1.8,0.1-2.6,0.3L55.6,7.4H74.9z M67.3,35.7l-0.2,0.7c-0.7-0.2-1.4-0.2-2.1-0.2c-0.6,0-1.1,0.1-1.6,0.2l-0.2-0.7
	c0.7-0.2,1.4-0.3,2.1-0.3C66,35.4,66.7,35.5,67.3,35.7z M60.6,37.7c-0.9,0.6-1.7,1.5-2.3,2.4l-0.6-0.6c0.7-1.1,1.6-1.9,2.7-2.6
	L60.6,37.7z M52.7,8.2l7.4,27.7c-1.2,0.7-2.3,1.7-3.1,2.9l-21-21L52.7,8.2z M56.2,45.1v-0.6c0-0.7,0.1-1.4,0.3-2.1l0.8,0.8
	c-0.1,0.4-0.1,0.8-0.1,1.2v1L56.2,45.1z M57.1,48.5v1.3L56.2,50v-1.8L57.1,48.5z M55.3,56.2H44.5l10.8-2.9V56.2z M55.3,50.3l-22.4,6
	h-9.7l0-16.8l32,8.6V50.3z M55.3,44.2v0.7l-31.1-8.3l9.7-16.7l21.8,21.8C55.5,42.5,55.3,43.3,55.3,44.2z M74.4,55.8H56.2v-2.7
	l0.9-0.2V55h16.5v-2.1l0.9,0.2V55.8z M74.4,50l-0.9-0.2v-1.3l0.9-0.2V50z M74.4,45.1l-0.9,0.2v-1c0-0.4-0.1-0.8-0.1-1.3l0.8-0.8
	c0.2,0.7,0.3,1.4,0.3,2.2V45.1z M96.7,19.8l9.7,16.8l-31.1,8.3v-0.7c0-0.9-0.2-1.7-0.4-2.5L96.7,19.8z M75.3,56.2v-2.9L86,56.2H75.3
	z M107.3,56.2h-9.8l-22.3-6V48l32.1-8.6V56.2z"/>
</svg>
