<svg id="Layer_1" data-name="Layer 1" xmlns="http://www.w3.org/2000/svg" viewBox="0 0 702.46 261.157"><defs><style>.cls-1,.cls-4{fill:#00309b;}.cls-2{fill:#f9b9ac;}.cls-3,.cls-5,.cls-6{fill:none;}.cls-3,.cls-4{stroke:#f9b9ac;}.cls-3,.cls-4,.cls-5,.cls-6{stroke-miterlimit:10;stroke-width:2px;}.cls-5,.cls-6{stroke:#00309b;}.cls-6{stroke-dasharray:6;}</style></defs><title>hierachy_1</title><circle class="cls-1" cx="428.02" cy="196.597" r="64.56"/><path class="cls-2" d="M741.78,605.27s4.79-.77,5.19-6.64c.4,5.87,5.19,6.64,5.19,6.64s-4.79.77-5.19,6.64C746.57,606.04,741.78,605.27,741.78,605.27Z" transform="translate(-288.53 -381.093)"/><path class="cls-2" d="M730.01,585.98s7.83-1.26,8.48-10.84c.65,9.58,8.48,10.84,8.48,10.84s-7.83,1.26-8.48,10.84C737.84,587.24,730.01,585.98,730.01,585.98Z" transform="translate(-288.53 -381.093)"/><circle class="cls-3" cx="421.72" cy="224.257" r="19.4"/><polyline class="cls-3" points="430.19 206.607 449.4 158.777 442.58 151.137 421.72 204.847"/><polyline class="cls-3" points="412.98 206.607 393.79 158.777 400.6 151.137 421.46 204.847"/><line class="cls-3" x1="400.6" y1="150.637" x2="442.58" y2="150.637"/><line class="cls-3" x1="403.49" y1="158.587" x2="439.51" y2="158.587"/><polyline class="cls-3" points="435.65 224.487 435.65 228.257 431.87 234.457 425.51 237.917 422.17 237.917 422.16 237.917 418.82 237.917 412.46 234.457 408.68 228.257 408.68 224.487 408.68 224.797 408.68 221.027 412.46 214.827 418.82 211.367 422.16 211.367 422.17 211.367 425.51 211.367 431.87 214.827 435.65 221.027 435.65 224.797"/><line class="cls-3" x1="408.68" y1="221.027" x2="419.61" y2="223.917"/><line class="cls-3" x1="412.46" y1="214.827" x2="420.36" y2="222.807"/><line class="cls-3" x1="418.82" y1="211.367" x2="421.35" y2="222.177"/><line class="cls-3" x1="435.65" y1="221.027" x2="424.84" y2="223.947"/><line class="cls-3" x1="432.1" y1="214.827" x2="424.15" y2="222.867"/><line class="cls-3" x1="425.74" y1="211.367" x2="423.21" y2="222.217"/><line class="cls-3" x1="408.68" y1="228.057" x2="419.61" y2="225.167"/><line class="cls-3" x1="412.46" y1="234.267" x2="420.26" y2="226.377"/><line class="cls-3" x1="418.82" y1="237.717" x2="421.27" y2="227.257"/><line class="cls-3" x1="435.65" y1="228.257" x2="424.8" y2="225.127"/><line class="cls-3" x1="432.1" y1="234.267" x2="424.24" y2="226.317"/><line class="cls-3" x1="425.74" y1="237.717" x2="423.25" y2="227.057"/><line class="cls-3" x1="411.4" y1="221.597" x2="411.4" y2="227.337"/><line class="cls-3" x1="432.6" y1="221.897" x2="432.6" y2="227.337"/><line class="cls-3" x1="414.46" y1="216.837" x2="419.51" y2="214.077"/><line class="cls-3" x1="425.1" y1="214.077" x2="430.15" y2="216.837"/><line class="cls-3" x1="414.25" y1="232.487" x2="419.51" y2="235.357"/><line class="cls-3" x1="425.1" y1="235.357" x2="430.35" y2="232.487"/><circle class="cls-3" cx="422.22" cy="224.647" r="2.62"/><circle class="cls-2" cx="422.22" cy="224.647" r="1.18"/><circle class="cls-1" cx="248.61" cy="195.757" r="64.56"/><polyline class="cls-3" points="293.96 183.437 293.96 191.957 285.41 205.947 271.07 213.737 263.53 213.737 263.52 213.737 255.98 213.737 241.64 205.947 233.1 191.957 233.1 183.437 233.1 184.157 233.1 175.637 241.64 161.647 255.98 153.857 263.52 153.857 263.53 153.857 271.07 153.857 285.41 161.647 293.96 175.637 293.96 184.157"/><line class="cls-3" x1="233.09" y1="175.637" x2="257.75" y2="182.167"/><line class="cls-3" x1="241.64" y1="161.647" x2="259.45" y2="179.657"/><line class="cls-3" x1="255.98" y1="153.857" x2="261.69" y2="178.227"/><line class="cls-3" x1="293.96" y1="175.637" x2="269.57" y2="182.237"/><line class="cls-3" x1="285.94" y1="161.647" x2="268" y2="179.797"/><line class="cls-3" x1="271.6" y1="153.857" x2="265.88" y2="178.317"/><line class="cls-3" x1="233.09" y1="191.507" x2="257.75" y2="184.977"/><line class="cls-3" x1="241.64" y1="205.497" x2="259.23" y2="187.707"/><line class="cls-3" x1="255.98" y1="213.287" x2="261.5" y2="189.707"/><line class="cls-3" x1="293.96" y1="191.957" x2="269.46" y2="184.887"/><line class="cls-3" x1="285.94" y1="205.497" x2="268.21" y2="187.567"/><line class="cls-3" x1="271.6" y1="213.287" x2="265.97" y2="189.237"/><line class="cls-3" x1="239.24" y1="176.927" x2="239.24" y2="189.877"/><line class="cls-3" x1="287.07" y1="177.597" x2="287.07" y2="189.877"/><line class="cls-3" x1="246.14" y1="166.197" x2="257.53" y2="159.967"/><line class="cls-3" x1="270.16" y1="159.967" x2="281.55" y2="166.197"/><line class="cls-3" x1="245.68" y1="201.497" x2="257.53" y2="207.967"/><line class="cls-3" x1="270.16" y1="207.967" x2="281.99" y2="201.507"/><circle class="cls-3" cx="263.66" cy="183.797" r="5.91"/><circle class="cls-2" cx="263.66" cy="183.807" r="2.66"/><path class="cls-1" d="M587.87,586.57a9.729,9.729,0,0,0-7.62-3,11.283,11.283,0,0,0-1.13.14,12.5,12.5,0,0,0-4.39,1.88q-.662.492-1.31,1a10.131,10.131,0,0,1-9.19,2.3c-.38-.1-.76-.24-1.14-.38a14.072,14.072,0,0,1-2.05-1c-.35-.24-.72-.48-1.1-.76a.88.88,0,0,1-.24-.17c-4.05-3.12-7.24-3-9.34-2.09a4.933,4.933,0,0,0-1,.51,6.9,6.9,0,0,0-1.88,1.58,13.389,13.389,0,0,1-1.58,1.27,9.384,9.384,0,0,1-.86.48c-2.47,1.41-6.55,2.47-10.74-1.44l-.34-.31a2.905,2.905,0,0,0-.28-.24,9.882,9.882,0,0,0-2-1.58,7.554,7.554,0,0,0-1.41-.72c-5.14-2-9,2.54-9,2.54v10.11h66.64Z" transform="translate(-288.53 -381.093)"/><path class="cls-3" d="M587.87,586.21a9.709,9.709,0,0,0-7.62-3,11.261,11.261,0,0,0-1.13.13,12.515,12.515,0,0,0-4.39,1.89,3.742,3.742,0,0,0-.69.51,5.428,5.428,0,0,0-.62.48,10.131,10.131,0,0,1-9.19,2.3c-.38-.1-.76-.24-1.14-.37a14.226,14.226,0,0,1-2.05-1c-.35-.24-.72-.48-1.1-.75a1.276,1.276,0,0,1-.24-.18c-4.05-3.12-7.24-2.95-9.34-2.09a5.025,5.025,0,0,0-1,.52,7.008,7.008,0,0,0-1.88,1.57,12.288,12.288,0,0,1-1.58,1.27,9.477,9.477,0,0,1-.86.49c-2.47,1.4-6.55,2.47-10.74-1.45-.1-.1-.24-.2-.34-.31a2.905,2.905,0,0,0-.28-.24,9.8,9.8,0,0,0-2-1.57,7.554,7.554,0,0,0-1.41-.72c-5.14-2-9,2.53-9,2.53" transform="translate(-288.53 -381.093)"/><path class="cls-4" d="M531.78,592.16a12.983,12.983,0,0,0-4.16.66L515.3,579.53c4.88-22.26-18.36-19.92-18.36-19.92l10.55,11.55-9.76,9.57-11.34-11.91s-2.27,23.44,20,18.55l13.35,12.39a13.205,13.205,0,0,0-1.31,5.78,13.35,13.35,0,1,0,13.35-13.38Zm0,19.76a6.41,6.41,0,1,1,6.4-6.42v.01a6.4,6.4,0,0,1-6.35,6.45h-.05Z" transform="translate(-288.53 -381.093)"/><circle class="cls-1" cx="64.56" cy="195.757" r="64.56"/><polyline class="cls-3" points="98.67 194.617 98.67 204.917 88.34 221.847 70.98 231.277 61.87 231.277 61.85 231.277 52.74 231.277 35.39 221.847 25.05 204.917 25.05 194.617 25.05 195.487 25.05 185.187 35.39 168.257 52.74 158.837 61.85 158.837 61.87 158.837 70.98 158.837 88.34 168.257 98.67 185.187 98.67 195.487"/><line class="cls-3" x1="25.05" y1="185.187" x2="54.88" y2="193.077"/><line class="cls-3" x1="35.39" y1="168.257" x2="56.93" y2="190.047"/><line class="cls-3" x1="52.74" y1="158.837" x2="59.63" y2="188.317"/><line class="cls-3" x1="98.67" y1="185.187" x2="69.17" y2="193.167"/><line class="cls-3" x1="88.98" y1="168.257" x2="67.27" y2="190.217"/><line class="cls-3" x1="71.63" y1="158.837" x2="64.7" y2="188.437"/><line class="cls-3" x1="25.05" y1="204.377" x2="54.88" y2="196.487"/><line class="cls-3" x1="35.39" y1="221.307" x2="56.67" y2="199.777"/><line class="cls-3" x1="52.74" y1="230.727" x2="59.41" y2="202.197"/><line class="cls-3" x1="98.67" y1="204.927" x2="69.05" y2="196.367"/><line class="cls-3" x1="88.98" y1="221.307" x2="67.53" y2="199.617"/><line class="cls-3" x1="71.63" y1="230.727" x2="64.82" y2="201.637"/><line class="cls-3" x1="32.48" y1="186.747" x2="32.48" y2="202.417"/><line class="cls-3" x1="90.35" y1="187.557" x2="90.35" y2="202.417"/><line class="cls-3" x1="40.82" y1="173.757" x2="54.6" y2="166.237"/><line class="cls-3" x1="69.88" y1="166.237" x2="83.66" y2="173.757"/><line class="cls-3" x1="40.28" y1="216.467" x2="54.6" y2="224.297"/><line class="cls-3" x1="69.88" y1="224.297" x2="84.2" y2="216.477"/><circle class="cls-3" cx="62.02" cy="195.057" r="7.15"/><circle class="cls-2" cx="62.02" cy="195.077" r="3.22"/><path class="cls-1" d="M393.72,602.37c-3.24-3.07-6.44-3.86-9.22-3.65a12.878,12.878,0,0,0-1.37.17,15,15,0,0,0-5.31,2.28,4.613,4.613,0,0,0-.83.62,5.2,5.2,0,0,0-.75.58,12.268,12.268,0,0,1-11.13,2.78c-.45-.12-.91-.29-1.37-.45a17.6,17.6,0,0,1-2.49-1.21c-.41-.29-.87-.58-1.32-.91a.942.942,0,0,1-.29-.21c-4.9-3.77-8.76-3.57-11.3-2.53a6.53,6.53,0,0,0-1.24.62,8.375,8.375,0,0,0-2.28,1.91,15.194,15.194,0,0,1-1.91,1.54c-.29.17-.67.41-1,.58-3,1.7-7.93,3-13-1.74-.12-.13-.29-.25-.41-.38a2.927,2.927,0,0,0-.33-.29,11.894,11.894,0,0,0-2.41-1.91,9.766,9.766,0,0,0-1.7-.87c-6.23-2.45-10.92,3.07-10.92,3.07v12.24h80.62Z" transform="translate(-288.53 -381.093)"/><path class="cls-3" d="M393.72,601.94c-3.24-3.07-6.44-3.86-9.22-3.65a12.878,12.878,0,0,0-1.37.17,15,15,0,0,0-5.31,2.28,5.124,5.124,0,0,0-.83.62,6.277,6.277,0,0,0-.75.58,12.291,12.291,0,0,1-11.13,2.79c-.45-.13-.91-.29-1.37-.46a18.635,18.635,0,0,1-2.49-1.2c-.41-.3-.87-.59-1.32-.92a.942.942,0,0,1-.29-.21c-4.9-3.77-8.76-3.57-11.3-2.53a6.53,6.53,0,0,0-1.24.62,8.375,8.375,0,0,0-2.28,1.91,15.194,15.194,0,0,1-1.91,1.54,9.958,9.958,0,0,1-1,.58c-3,1.7-7.93,3-13-1.74-.12-.13-.29-.25-.41-.38a2.927,2.927,0,0,0-.33-.29,11.894,11.894,0,0,0-2.41-1.91,9.766,9.766,0,0,0-1.7-.87c-6.23-2.45-10.92,3.07-10.92,3.07" transform="translate(-288.53 -381.093)"/><circle class="cls-1" cx="608.84" cy="196.597" r="64.3"/><polyline class="cls-3" points="582.5 224.197 569.27 224.197 569.27 174.197 583.56 174.197 583.56 146.367 595.77 146.367 604.69 155.447 604.69 180.937"/><rect class="cls-2" x="575.48" y="181.937" width="2.75" height="2.74"/><rect class="cls-2" x="575.48" y="187.737" width="2.75" height="2.74"/><rect class="cls-2" x="587.32" y="151.067" width="2.75" height="2.74"/><polyline class="cls-3" points="641.3 211.117 641.3 219.637 632.76 233.627 618.41 241.417 610.88 241.417 610.86 241.417 603.33 241.417 588.99 233.627 580.44 219.637 580.44 211.117 580.44 211.837 580.44 203.317 588.99 189.327 603.33 181.537 610.86 181.537 610.88 181.537 618.41 181.537 632.76 189.327 641.3 203.317 641.3 211.837"/><line class="cls-3" x1="580.44" y1="203.317" x2="605.1" y2="209.847"/><line class="cls-3" x1="588.99" y1="189.327" x2="606.8" y2="207.337"/><line class="cls-3" x1="603.33" y1="181.537" x2="609.03" y2="205.907"/><line class="cls-3" x1="641.3" y1="203.317" x2="616.92" y2="209.917"/><line class="cls-3" x1="633.29" y1="189.327" x2="615.35" y2="207.477"/><line class="cls-3" x1="618.95" y1="181.537" x2="613.22" y2="205.997"/><line class="cls-3" x1="580.44" y1="219.187" x2="605.1" y2="212.657"/><line class="cls-3" x1="588.99" y1="233.177" x2="606.58" y2="215.387"/><line class="cls-3" x1="603.33" y1="240.967" x2="608.85" y2="217.387"/><line class="cls-3" x1="641.3" y1="219.637" x2="616.81" y2="212.567"/><line class="cls-3" x1="633.29" y1="233.177" x2="615.56" y2="215.247"/><line class="cls-3" x1="618.95" y1="240.967" x2="613.32" y2="216.917"/><line class="cls-3" x1="586.58" y1="204.607" x2="586.58" y2="217.557"/><line class="cls-3" x1="634.42" y1="205.277" x2="634.42" y2="217.557"/><line class="cls-3" x1="593.48" y1="193.867" x2="604.87" y2="187.647"/><line class="cls-3" x1="617.51" y1="187.647" x2="628.9" y2="193.867"/><line class="cls-3" x1="593.03" y1="229.177" x2="604.87" y2="235.647"/><line class="cls-3" x1="617.51" y1="235.647" x2="629.34" y2="229.177"/><circle class="cls-3" cx="611.01" cy="211.477" r="5.91"/><circle class="cls-2" cx="611.01" cy="211.487" r="2.66"/><path class="cls-1" d="M933.63,615.58a9.729,9.729,0,0,0-7.62-3,10.471,10.471,0,0,0-1.13.14,12.476,12.476,0,0,0-4.4,1.88,4,4,0,0,0-.68.52,4.3,4.3,0,0,0-.62.48,10.169,10.169,0,0,1-9.2,2.3c-.37-.11-.75-.24-1.13-.38a13.272,13.272,0,0,1-2.06-1c-.34-.24-.72-.48-1.1-.75a1.088,1.088,0,0,1-.24-.17c-4.05-3.12-7.24-2.95-9.33-2.09a4.327,4.327,0,0,0-1,.51,6.839,6.839,0,0,0-1.89,1.58,12.288,12.288,0,0,1-1.58,1.27,9.218,9.218,0,0,1-.85.48c-2.47,1.41-6.56,2.47-10.74-1.44-.11-.11-.24-.21-.35-.31a1.923,1.923,0,0,0-.27-.24,9.882,9.882,0,0,0-2-1.58,7.554,7.554,0,0,0-1.41-.72c-5.15-2-9,2.54-9,2.54v10.11h66.6Z" transform="translate(-288.53 -381.093)"/><path class="cls-3" d="M933.63,615.22a9.729,9.729,0,0,0-7.62-3,6.126,6.126,0,0,0-1.13.14,12.481,12.481,0,0,0-4.4,1.89,3.972,3.972,0,0,0-.68.51,5.428,5.428,0,0,0-.62.48,10.139,10.139,0,0,1-9.2,2.3c-.37-.1-.75-.24-1.13-.37a14.338,14.338,0,0,1-2.06-1c-.34-.24-.72-.48-1.1-.75a1.747,1.747,0,0,1-.24-.18c-4.05-3.12-7.24-2.95-9.33-2.09a5.148,5.148,0,0,0-1,.51,7.073,7.073,0,0,0-1.89,1.58,11.487,11.487,0,0,1-1.58,1.27,7.243,7.243,0,0,1-.85.48c-2.47,1.41-6.56,2.47-10.74-1.44-.11-.1-.24-.2-.35-.31a1.923,1.923,0,0,0-.27-.24,10.213,10.213,0,0,0-2-1.58,9,9,0,0,0-1.41-.72c-5.15-2-9,2.54-9,2.54" transform="translate(-288.53 -381.093)"/><polyline class="cls-5" points="232.94 3.817 701.46 3.767 701.46 87.337 72.64 87.337"/><polyline class="cls-5" points="236.05 0.707 232.94 3.817 235.94 6.817"/><line class="cls-6" x1="72.64" y1="133.987" x2="72.64" y2="87.337"/><line class="cls-6" x1="250.14" y1="133.987" x2="250.14" y2="87.337"/><line class="cls-6" x1="428.17" y1="133.987" x2="428.17" y2="87.337"/><line class="cls-6" x1="610.87" y1="133.987" x2="610.87" y2="87.337"/><circle class="cls-2" cx="92.45" cy="170.887" r="15.95"/><path class="cls-1" d="M378.63,544.07a3.487,3.487,0,0,1,2.9,1.35,7.669,7.669,0,0,1,0,7.78,3.8,3.8,0,0,1-5.8,0,7.659,7.659,0,0,1,0-7.81A3.511,3.511,0,0,1,378.63,544.07Zm2.64,5.24a5.634,5.634,0,0,0-.67-3,2.38,2.38,0,0,0-4,0,7.189,7.189,0,0,0,0,6.06,2.38,2.38,0,0,0,4,0,5.669,5.669,0,0,0,.65-3.06Z" transform="translate(-288.53 -381.093)"/><path class="cls-1" d="M383.54,558.03h3.43v.68H382.8v-.87a1.648,1.648,0,0,1,.79-1.53,3.254,3.254,0,0,1,.56-.28l1.17-.47a1.231,1.231,0,0,0,.9-1.18.93.93,0,0,0-.31-.73,1.253,1.253,0,0,0-.87-.29,1.661,1.661,0,0,0-.91.23,1,1,0,0,0-.41.71h-.81a1.469,1.469,0,0,1,.61-1.18,2.455,2.455,0,0,1,1.47-.42,2.16,2.16,0,0,1,1.46.49,1.541,1.541,0,0,1,.57,1.21,1.7,1.7,0,0,1-.37,1.14,2.622,2.622,0,0,1-1,.67l-1.19.48a2,2,0,0,0-.68.43.918.918,0,0,0-.22.62Z" transform="translate(-288.53 -381.093)"/></svg>