<svg id="Layer_1" data-name="Layer 1" xmlns="http://www.w3.org/2000/svg" viewBox="0 0 297.14 277.99"><defs><style>.cls-1,.cls-2{fill:none;stroke:#fff;stroke-miterlimit:10;stroke-width:2px;}.cls-2{stroke-dasharray:12;}</style></defs><title>kanghan_pro1</title><circle class="cls-1" cx="148.87" cy="136.61" r="81.66"/><circle class="cls-1" cx="641.37" cy="509.85" r="65.29" transform="translate(-456.453 688.029) rotate(-80.783)"/><path class="cls-1" d="M733.99,519.52a10.3,10.3,0,0,0,8.06-.71,98.981,98.981,0,0,1-3.59,19.2,10.765,10.765,0,0,0-2.86-1.77,10.19,10.19,0,0,0-7.75,18.84,9.811,9.811,0,0,0,3.56.75,101.486,101.486,0,0,1-12.78,19.16,10.316,10.316,0,0,0-2.5-4.09,10.18,10.18,0,0,0-14.39,14.39,9.755,9.755,0,0,0,4,2.47,99.436,99.436,0,0,1-16,10.84,9.9,9.9,0,0,0-.75-4.5,10.18,10.18,0,1,0-15.91,11.73,100.121,100.121,0,0,1-23.14,4.73,10.18,10.18,0,1,0-18.61-.12,101.114,101.114,0,0,1-19.71-4,10.18,10.18,0,1,0-15.32-12.16,10.323,10.323,0,0,0-.59,5.75,101.689,101.689,0,0,1-19.16-12.66,10.329,10.329,0,0,0,6.11-9.66,9.187,9.187,0,0,0-1-4,10.229,10.229,0,0,0-16.46-2.86,9.981,9.981,0,0,0-2.05,3,100.762,100.762,0,0,1-11.1-16.69,9.8,9.8,0,0,0,4.15-.77,10.183,10.183,0,1,0-7.83-18.8,10,10,0,0,0-3.5,2.43,101.029,101.029,0,0,1-4.12-20.61,10.12,10.12,0,0,0,11.29-3.14,9.574,9.574,0,0,0,2.05-4,10.2,10.2,0,0,0-9.93-12.56,9.825,9.825,0,0,0-3.41.61,100.386,100.386,0,0,1,4.5-21.75,10.18,10.18,0,1,0,11.84-15.75,9.993,9.993,0,0,0-4.81-.71,100.686,100.686,0,0,1,10.9-16.25,9.981,9.981,0,0,0,2.05,3,10.2,10.2,0,1,0,14.4-14.45,9.807,9.807,0,0,0-3.07-2.11,101.043,101.043,0,0,1,18.57-12.36,10.172,10.172,0,1,0,19.59-4,9.764,9.764,0,0,0-2-3,101.644,101.644,0,0,1,18.58-3.63,10.168,10.168,0,0,0-.85,4.34,10.32,10.32,0,0,0,10,9.91,10.171,10.171,0,0,0,10.388-9.948c0-.077,0-.155,0-.232a9.921,9.921,0,0,0-.91-4.19,100.781,100.781,0,0,1,21.32,4.14,9.876,9.876,0,0,0-1.5,2.52,10.19,10.19,0,0,0,18.84,7.75,9.649,9.649,0,0,0,.68-2.7,99.812,99.812,0,0,1,16.45,11.09,9.755,9.755,0,0,0-4,2.47,10.18,10.18,0,1,0,16.89,10.3,100.556,100.556,0,0,1,12.07,17.84,9.534,9.534,0,0,0-4.16.77,10.17,10.17,0,1,0,11.32,16.35,101.67,101.67,0,0,1,4.18,21.22,10.19,10.19,0,1,0-8.06,18.63Z" transform="translate(-491.82 -373.24)"/><circle class="cls-1" cx="641.4" cy="509.85" r="19.21" transform="matrix(0.16, -0.987, 0.987, 0.16, -456.427, 688.059)"/><circle class="cls-1" cx="149.58" cy="136.61" r="30.22"/><polyline class="cls-2" points="297.14 237.32 48.93 237.32 48.93 35.9 297.14 35.9"/><polyline class="cls-2" points="3.95 35.9 48.93 35.9 48.93 0"/><polyline class="cls-2" points="0 237.32 48.93 237.32 48.93 277.99"/><line class="cls-2" x1="250.23" x2="250.23" y2="276.91"/></svg>