<svg id="Layer_3_copy" data-name="Layer 3 copy" xmlns="http://www.w3.org/2000/svg" viewBox="0 0 558.754 852.752"><defs><style>.cls-1{fill:#7c937b;}.cls-2{fill:#00309b;}</style></defs><title>kanghan-green-ver</title><rect class="cls-1" x="0.046" width="558.708" height="852.752"/><path class="cls-2" d="M217.139,559.786h-8.182v-1.991h8.182Zm178.027-20.168a15.689,15.689,0,0,1-2.032-.123,16.182,16.182,0,0,1-3.954-.968,16.606,16.606,0,0,1-4.746-2.728,17.82,17.82,0,0,1-1.664-1.541l-.19-.163a17.413,17.413,0,0,1-2.564-3.641l-.109-.177A17.279,17.279,0,0,1,380.4,513.6a18.332,18.332,0,0,1,3-3.723,16.987,16.987,0,0,1,3.368-2.468,17.372,17.372,0,0,1,12.532-1.691,15.809,15.809,0,0,1,2.373.764,16.48,16.48,0,0,1,4.214,2.481,17.948,17.948,0,0,1,2.223,2.1,17.181,17.181,0,0,1,2.331,3.464,16.653,16.653,0,0,1,1.719,5.2,17.15,17.15,0,0,1,.2,2.659,16.068,16.068,0,0,1-.218,2.727,16.48,16.48,0,0,1-1.7,5.169,17.059,17.059,0,0,1-8.768,8.018,16.655,16.655,0,0,1-2.945.914,17.054,17.054,0,0,1-3.56.409Zm-11.237-6.969.082.082a17.485,17.485,0,0,0,1.664,1.568,14.994,14.994,0,0,0,4.2,2.36,14.537,14.537,0,0,0,3.5.859,15.918,15.918,0,0,0,4.937-.218,15.41,15.41,0,0,0,2.6-.8,15.005,15.005,0,0,0,7.746-7.105,14.5,14.5,0,0,0,1.513-4.541,15.478,15.478,0,0,0,.191-2.414,14.622,14.622,0,0,0-.191-2.345h0a14.5,14.5,0,0,0-1.513-4.541,14.335,14.335,0,0,0-2.06-3.055,14.65,14.65,0,0,0-1.963-1.854,14.158,14.158,0,0,0-3.723-2.2,13.893,13.893,0,0,0-2.086-.682,15.3,15.3,0,0,0-11.1,1.5,14.456,14.456,0,0,0-2.972,2.169,15.89,15.89,0,0,0-2.646,3.3,15.23,15.23,0,0,0-.572,14.468l.136.232a14.292,14.292,0,0,0,2.249,3.218Zm36.179-11.741-.1-.9a24.828,24.828,0,0,0-2.727-9.205l-.464-.872,20.646-11.346,125.812-69.1.314,1.241,22.923,90h-1.282Zm-.669-10.159a26.83,26.83,0,0,1,2.455,8.182l162-.164-21.969-86.279Zm-3.722-2.482-.518-.7a24.452,24.452,0,0,0-5.455-5.372l-.75-.532L420.94,481.7l74.006-123.562.532.531,67.488,67.42-1.16.641Zm-4.091-7.146a26.806,26.806,0,0,1,4.663,4.555l19.01-10.609,124.366-69.425-64.337-64.283Zm-35.756,5.741L234.948,421.878l.9-.9,66.125-65.7,70.72,125.457,11.1,19.61-.873.491a24.718,24.718,0,0,0-6.573,5.455ZM339.6,482.644h.1l35.714,21.641a26.733,26.733,0,0,1,5.687-4.705l-10.841-19.091-68.715-121.9-63.356,62.947Zm67.12,17.727-.818-.395a24.163,24.163,0,0,0-6.955-2.127l-.859-.123V331.672l94.98,23.878-.41.668Zm-6.627-4.35a25.659,25.659,0,0,1,5.85,1.773l84.016-141.017-89.893-22.61Zm-14.537,3.532L304.782,355.1l1.241-.328,90.166-24.137V497.548h-1a24.681,24.681,0,0,0-8.836,1.664ZM307.823,356.368l78.684,140.717a26.682,26.682,0,0,1,7.745-1.473V333.2Z" transform="translate(-78.454 24.648)"/><path class="cls-2" d="M395.166,539.618a15.689,15.689,0,0,1-2.032-.123,16.182,16.182,0,0,1-3.954-.968,16.606,16.606,0,0,1-4.746-2.728,17.806,17.806,0,0,1-1.664-1.527l-.19-.191a17.461,17.461,0,0,1-2.564-3.627l-.109-.178A17.277,17.277,0,0,1,380.4,513.6a18.332,18.332,0,0,1,3-3.723,16.987,16.987,0,0,1,3.368-2.468,17.372,17.372,0,0,1,12.532-1.691,15.92,15.92,0,0,1,2.373.763,16.512,16.512,0,0,1,4.214,2.482,17.874,17.874,0,0,1,2.223,2.1,17.181,17.181,0,0,1,2.331,3.464,16.653,16.653,0,0,1,1.719,5.2,17.141,17.141,0,0,1,.2,2.659,16.076,16.076,0,0,1-.218,2.727,16.466,16.466,0,0,1-1.7,5.168,17.057,17.057,0,0,1-8.768,8.019,16.569,16.569,0,0,1-2.945.913A16.989,16.989,0,0,1,395.166,539.618Zm-11.237-6.969.082.082a17.613,17.613,0,0,0,1.664,1.568,14.966,14.966,0,0,0,4.2,2.359,14.492,14.492,0,0,0,3.5.86,15.888,15.888,0,0,0,4.937-.219,15.316,15.316,0,0,0,2.6-.8,15.005,15.005,0,0,0,7.746-7.105,14.5,14.5,0,0,0,1.513-4.541,15.478,15.478,0,0,0,.191-2.414,15.22,15.22,0,0,0-1.7-6.941,14.329,14.329,0,0,0-2.06-3.054,14.657,14.657,0,0,0-1.963-1.855,14.154,14.154,0,0,0-3.723-2.195,13.669,13.669,0,0,0-2.086-.682,15.3,15.3,0,0,0-11.1,1.5,14.451,14.451,0,0,0-2.972,2.168,15.89,15.89,0,0,0-2.646,3.3,15.232,15.232,0,0,0-.572,14.469l.136.231A14.3,14.3,0,0,0,383.929,532.649Z" transform="translate(-78.454 24.648)"/><path class="cls-2" d="M395.166,530.849a8.414,8.414,0,1,1,8.414-8.414h0A8.414,8.414,0,0,1,395.166,530.849Zm0-14.823a6.423,6.423,0,1,0,6.423,6.423v-.014A6.423,6.423,0,0,0,395.166,516.026Z" transform="translate(-78.454 24.648)"/><rect class="cls-2" x="396.422" y="504.066" width="1.991" height="5.1" transform="translate(-232.193 864.171) rotate(-83.02)"/><polygon class="cls-2" points="329.217 537.551 328.781 537.156 328.181 536.583 328.985 535.724 330.035 536.679 329.217 537.551"/><polygon class="cls-2" points="305.339 536.433 304.494 535.56 305.516 534.592 306.335 535.424 305.339 536.433"/><polygon class="cls-2" points="302.544 539.965 301.685 539.106 302.68 538.111 303.526 538.929 302.544 539.965"/><polygon class="cls-2" points="333.322 545.57 332.094 545.57 332.094 544.165 333.267 544.138 333.322 545.57"/><polygon class="cls-2" points="332.204 551.911 332.149 550.479 328.453 548.638 332.504 548.638 333.077 547.329 333.185 548.638 333.24 548.638 333.267 549.443 333.404 549.511 333.295 549.756 333.295 550.029 333.158 550.029 332.817 550.82 332.763 550.793 332.204 551.911"/><polygon class="cls-2" points="313.808 563.775 313.808 562.52 315.226 562.52 315.253 563.693 313.808 563.775"/><polygon class="cls-2" points="305.598 560.311 305.598 559.125 307.003 559.125 307.017 560.297 305.598 560.311"/><polygon class="cls-2" points="327.526 560.025 326.667 559.179 327.662 558.184 328.494 558.988 327.526 560.025"/><path class="cls-2" d="M375.27,480.475l-.846-1.8.518-.245a48.2,48.2,0,0,1,20.21-4.746h.586v1.991h-.586a46.286,46.286,0,0,0-19.378,4.555Z" transform="translate(-78.454 24.648)"/><path class="cls-2" d="M442.731,520.54v-.586a46.372,46.372,0,0,0-5.686-20l-.273-.546,1.745-.968.286.518a48.267,48.267,0,0,1,5.933,20.864v.586Z" transform="translate(-78.454 24.648)"/><path class="cls-2" d="M422.9,563.127l-1.118-1.65.477-.327a48.228,48.228,0,0,0,4.091-3.123A46.362,46.362,0,0,0,436.5,545.836l.286-.5,1.732,1-.286.5a48.628,48.628,0,0,1-10.582,12.71,52.048,52.048,0,0,1-4.268,3.259Z" transform="translate(-78.454 24.648)"/><path class="cls-2" d="M393.789,571.159H393.2a48.284,48.284,0,0,1-19.568-5.332l-.518-.272.913-1.773.518.273a46.5,46.5,0,0,0,18.764,5.113h.587Z" transform="translate(-78.454 24.648)"/><path class="cls-2" d="M352.906,545.318l-.273-.518a47.835,47.835,0,0,1-5.318-19.446v-.587l1.991-.109v.587a45.481,45.481,0,0,0,5.1,18.627l.259.518Z" transform="translate(-78.454 24.648)"/><path class="cls-2" d="M349.238,520.567l-1.991-.109v-.586a48.692,48.692,0,0,1,6.614-22.092l.3-.5,1.718,1.009-.3.5a46.787,46.787,0,0,0-6.341,21.192Z" transform="translate(-78.454 24.648)"/><path class="cls-2" d="M369.229,563.223l-.491-.328a44.779,44.779,0,0,1-4.4-3.354,48.387,48.387,0,0,1-8.659-9.641l-.327-.478L357,548.3l.341.477a46.331,46.331,0,0,0,8.291,9.246,45.486,45.486,0,0,0,4.227,3.218l.491.328Z" transform="translate(-78.454 24.648)"/><path class="cls-2" d="M397.989,571.173l-.109-1.991h.586a46.5,46.5,0,0,0,18.86-5.073l.518-.273.913,1.773-.518.273a48.413,48.413,0,0,1-19.664,5.291Z" transform="translate(-78.454 24.648)"/><path class="cls-2" d="M440.263,542.863l-1.814-.818.232-.532a45.761,45.761,0,0,0,4.022-16.582v-.586l1.991.109v.586a47.821,47.821,0,0,1-4.186,17.291Z" transform="translate(-78.454 24.648)"/><path class="cls-2" d="M435.244,496.976l-.327-.491a47.219,47.219,0,0,0-13.637-13.432l-.5-.314,1.078-1.677.491.313a49.094,49.094,0,0,1,14.291,14l.327.491Z" transform="translate(-78.454 24.648)"/><path class="cls-2" d="M417.789,481.062l-.531-.273A45.819,45.819,0,0,0,399,475.771h-.586l.123-1.991h.586a47.851,47.851,0,0,1,19.092,5.236l.518.273Z" transform="translate(-78.454 24.648)"/><path class="cls-2" d="M357.679,495.53l-1.623-1.159.341-.477a48.794,48.794,0,0,1,15-13.555l.5-.3,1,1.732-.505.286a46.741,46.741,0,0,0-14.3,13Z" transform="translate(-78.454 24.648)"/><path class="cls-2" d="M336.405,483.039,293.7,457.266l4.377.422a48.558,48.558,0,0,1,35.892,21.669Zm-33.641-22.623,26.591,16.036a46.135,46.135,0,0,0-26.591-16.023Z" transform="translate(-78.454 24.648)"/><path class="cls-2" d="M293.259,555.041a48.042,48.042,0,0,1-22.364-5.455,49.927,49.927,0,0,1-4.7-2.727,50.543,50.543,0,0,1-6.654-5.359,48.536,48.536,0,0,1-11.019-15.792l-.6-1.363h90.67l-.613,1.363a48.052,48.052,0,0,1-6.9,11.346c-1.064,1.3-2.073,2.427-3.11,3.477a50.46,50.46,0,0,1-4.009,3.628A48.879,48.879,0,0,1,293.259,555.041Zm-42.274-28.746a46.79,46.79,0,0,0,9.928,13.759,47.894,47.894,0,0,0,6.382,5.127,46.694,46.694,0,0,0,55.392-2.59q2.009-1.643,3.846-3.478c.982-1,1.95-2.086,2.972-3.327a46.69,46.69,0,0,0,5.987-9.546Z" transform="translate(-78.454 24.648)"/><path class="cls-2" d="M339.787,520.922H246.744l-.218-.709a48.847,48.847,0,0,1,42.151-62.566H289l.273.164,48.888,29.319.122.3a48.712,48.712,0,0,1,1.719,32.728Zm-91.556-1.991H338.3a46.653,46.653,0,0,0-1.732-30.4l-5.454-3.26-42.588-25.568a46.759,46.759,0,0,0-40.3,59.224Z" transform="translate(-78.454 24.648)"/><path class="cls-2" d="M294.691,483.162a4.76,4.76,0,1,1,4.745-4.773v.027A4.759,4.759,0,0,1,294.691,483.162Zm0-7.514a2.728,2.728,0,1,0,2.727,2.727A2.727,2.727,0,0,0,294.691,475.648Z" transform="translate(-78.454 24.648)"/><path class="cls-2" d="M271.358,492.285a4.746,4.746,0,1,1,4.746-4.746h0A4.76,4.76,0,0,1,271.358,492.285Zm0-7.5a2.727,2.727,0,1,0,2.728,2.727A2.727,2.727,0,0,0,271.358,484.785Z" transform="translate(-78.454 24.648)"/><path class="cls-2" d="M265.386,512.208a4.753,4.753,0,1,1,.013,0Zm0-7.5a2.727,2.727,0,1,0,2.727,2.727A2.728,2.728,0,0,0,265.386,504.708Z" transform="translate(-78.454 24.648)"/><path class="cls-2" d="M326.314,512.208a4.746,4.746,0,1,1,4.746-4.746h0A4.746,4.746,0,0,1,326.314,512.208Zm0-7.5a2.727,2.727,0,1,0,2.728,2.727A2.727,2.727,0,0,0,326.314,504.708Z" transform="translate(-78.454 24.648)"/><path class="cls-2" d="M297.023,542.168a4.746,4.746,0,1,1,4.745-4.746h0A4.759,4.759,0,0,1,297.023,542.168Zm0-7.5a2.727,2.727,0,1,0,2.727,2.727A2.728,2.728,0,0,0,297.023,534.668Z" transform="translate(-78.454 24.648)"/><path class="cls-2" d="M314.7,510.79H304.059l.082-1.064a10.9,10.9,0,0,0-2.373-7.2A8.617,8.617,0,0,0,295.2,500.1c-9.545,0-10.254,9.355-10.282,9.751v.941H274.686v-1c0-.232.231-22.255,20.564-22.255,5.782,0,10.418,1.786,13.773,5.305,6.191,6.5,5.782,16.568,5.768,16.991Zm-8.564-1.991h6.614c-.068-2.482-.655-9.778-5.223-14.578-2.973-3.109-7.118-4.691-12.273-4.691-7.118,0-12.355,2.973-15.546,8.823a26.925,26.925,0,0,0-2.972,10.446H283.1c.45-2.66,2.6-10.7,12.15-10.7a10.486,10.486,0,0,1,8.032,3.082,11.947,11.947,0,0,1,2.85,7.623Z" transform="translate(-78.454 24.648)"/><path class="cls-2" d="M294.445,515.167a5.946,5.946,0,1,1,5.946-5.945v.013a5.932,5.932,0,0,1-5.932,5.932Zm0-9.873a3.948,3.948,0,1,0,.014,0Z" transform="translate(-78.454 24.648)"/><path class="cls-2" d="M263.34,559.159H252.676L264.949,524.3h10.16Zm-7.841-1.991h6.409l10.46-30.873H266.4Z" transform="translate(-78.454 24.648)"/><path class="cls-2" d="M327.092,520.922H265.931l2.618-4.828h57.274Zm-57.82-1.991h55.215l-.231-.846H269.709Z" transform="translate(-78.454 24.648)"/><polygon class="cls-2" points="252.102 583.725 251.093 582.007 256.956 578.53 257.979 580.248 252.102 583.725"/><path class="cls-2" d="M326.751,560.018,317.287,524.3h10.746l8.55,31.214-5.755,3.355ZM322.66,536.59v.1l5.455,20.864,2-.559,4.091-2.414-7.745-28.282h-6.628Z" transform="translate(-78.454 24.648)"/><rect class="cls-2" x="338.544" y="480.343" width="33.355" height="1.991" transform="translate(-130.889 68.168) rotate(-6.53)"/><rect class="cls-2" x="294.513" y="485.332" width="37.828" height="1.991" transform="translate(-131.337 63.127) rotate(-6.48)"/><rect class="cls-2" x="321.257" y="510.381" width="1.991" height="53.96" transform="translate(-381.074 608.235) rotate(-63.28)"/><rect class="cls-2" x="357.224" y="547.351" width="1.991" height="15.955" transform="translate(-377.341 650.136) rotate(-63.27)"/><path class="cls-2" d="M175.588,557H78.454V540.177h97.134Zm-97.121-1.991h95.116V542.168H78.454Z" transform="translate(-78.454 24.648)"/><path class="cls-2" d="M170.406,626.838l-91.952-1.5V555.014h91.952Zm-91.952-3.41,89.893,1.378V557H78.454Z" transform="translate(-78.454 24.648)"/><polygon class="cls-2" points="507.457 584.562 506.14 584.562 506.14 582.431 558.754 582.431 558.754 583.686 507.457 584.562"/><rect class="cls-2" x="341.886" y="582.443" width="38.606" height="1.991"/><rect class="cls-2" x="298.521" y="582.443" width="16.869" height="1.991"/><rect class="cls-2" x="137.512" y="582.443" width="113.703" height="1.991"/><rect class="cls-2" x="261.538" y="582.443" width="31.815" height="1.991"/><rect class="cls-2" x="319.48" y="582.443" width="16.746" height="1.991"/><rect class="cls-2" x="388.891" y="582.443" width="109.353" height="1.991"/><path class="cls-2" d="M170.406,602.551h-2v-.586c0-4.31,3.928-4.773,5.128-4.8a8.621,8.621,0,0,1,1.159,0h19.3v-39.37H210.1v1.991H195.975v39.342h-21.41a5.01,5.01,0,0,0-.9,0c-3.2.1-3.2,2.141-3.2,2.809Z" transform="translate(-78.454 24.648)"/><path class="cls-2" d="M200.57,516.19l-.477-.341c-7.3-5.209-7.841-9.778-6.273-16.9,1.65-7.5,13.719-11.223,14.237-11.373l.559-.164.572,1.9-.559.177c-.109,0-11.482,3.6-12.859,9.887-1.473,6.668-1.036,10.2,5.455,14.836l.477.341Z" transform="translate(-78.454 24.648)"/><rect class="cls-2" x="213.063" y="477.565" width="54.901" height="1.991" transform="translate(-253.431 165.223) rotate(-24.19)"/><path class="cls-2" d="M216.212,521.072l-.75-1.841.531-.232c1.964-.791,4.091-4.4,5.7-9.9a19.5,19.5,0,0,0-1.363-12.014l-5.455-7.2,1.595-1.2,5.537,7.336a20.813,20.813,0,0,1,1.595,13.637c-1.363,4.364-3.573,9.832-6.818,11.182Z" transform="translate(-78.454 24.648)"/><path class="cls-2" d="M395.984,721.586h-.259l-97.788-26.551-.191-.191-72.875-73.311-.068-.259L198.28,519.8l1.364-4.978,27.164-93.67.109-.109,70.911-72.67.272-.068,100.489-26.374h.259l96.82,26.537.178.177,74.02,72.452v.273l25.541,100.993v.15L570.329,621.4,495,694.9h-.245Zm-97.025-28.4,97.025,26.332,97.98-26.332,74.552-72.752,24.846-97.993L568.025,422.192l-73.434-71.865-96.084-26.319L298.959,350.1l-70.393,72.1-28.241,97.571,10.132,38.769,16.2,61.911Zm95.307,20.8-91.134-25.528.627-1.1,80.566-142.558.818.382a24.556,24.556,0,0,0,8.182,2.059l.927.082Zm-88.147-26.756,86.143,24.124V549.068a26.666,26.666,0,0,1-7.091-1.786l-10.214,18.055Zm91.366,26.333V547.186l.872-.109a24.159,24.159,0,0,0,7.487-2.182l.818-.382,11.932,19.91,73.052,122.035Zm1.99-164.6V710.908l89.13-25.61-82.68-138.167a26.382,26.382,0,0,1-6.409,1.828ZM298.564,685.326,234.13,620.77l1.105-.641,139.926-82.98.545.682a23.493,23.493,0,0,0,5.032,4.828l.737.532-11.319,19.4ZM237.2,621.233l60.887,60.9L378.693,543.8a26.292,26.292,0,0,1-4.159-4.009Zm256.9,62.184-.641-1.091L409.853,542.563l.695-.532a25.122,25.122,0,0,0,6.4-7.582l.491-.913,41.278,24.478,102.275,60.628ZM412.457,542.959l82.066,137.2,63.165-61.2L418.321,536.222a26.5,26.5,0,0,1-5.714,6.723ZM231.648,617.511l-.354-1.255-15.846-57.192-9.137-34.76h164.2l.095.886a15.216,15.216,0,0,0,2.319,6.518l.968,1.773-.491.287Zm-19.487-78.289.1.287,5.114,19.091,15.491,55.911L371,532.8v-.081a17.571,17.571,0,0,1-2.441-6.369H208.834ZM563.5,616.951,418.58,530.7l.245-.75a24.125,24.125,0,0,0,1.023-5.018l.082-.9H585.07l-.177.723ZM440.153,541.24l122.021,72.6,20.387-87.82H421.88a24.937,24.937,0,0,1-.777,3.777Zm-45.137-1.581a15.678,15.678,0,0,1-2.032-.123,16.179,16.179,0,0,1-3.955-.968,16.6,16.6,0,0,1-4.745-2.728,19.385,19.385,0,0,1-1.664-1.527l-.191-.191a17.108,17.108,0,0,1-2.563-3.627l-.109-.178a17.274,17.274,0,0,1,.491-16.677,18.3,18.3,0,0,1,3-3.723,16.987,16.987,0,0,1,3.368-2.468,17.37,17.37,0,0,1,12.532-1.691,15.809,15.809,0,0,1,2.373.764A16.474,16.474,0,0,1,405.734,509a17.8,17.8,0,0,1,2.223,2.1,17.144,17.144,0,0,1,2.332,3.464,16.643,16.643,0,0,1,1.705,5.2,15.683,15.683,0,0,1,.218,2.659,16.076,16.076,0,0,1-.218,2.727,16.466,16.466,0,0,1-1.705,5.168,17.057,17.057,0,0,1-8.768,8.019,16.6,16.6,0,0,1-2.946.913,16.983,16.983,0,0,1-3.409.369Zm-11.251-6.969.1.082a17.725,17.725,0,0,0,1.663,1.568,15,15,0,0,0,4.2,2.36,14.541,14.541,0,0,0,3.5.859,15.888,15.888,0,0,0,4.937-.219,15.327,15.327,0,0,0,2.605-.8,15,15,0,0,0,7.745-7.1,14.476,14.476,0,0,0,1.514-4.541,15.6,15.6,0,0,0,.191-2.414,14.975,14.975,0,0,0-.191-2.345h0a14.476,14.476,0,0,0-1.514-4.541,14.306,14.306,0,0,0-2.059-3.055,14.658,14.658,0,0,0-1.964-1.854,14.152,14.152,0,0,0-3.722-2.2,13.905,13.905,0,0,0-2.087-.682,15.3,15.3,0,0,0-11.1,1.5,14.489,14.489,0,0,0-2.973,2.169,15.885,15.885,0,0,0-2.645,3.3,15.23,15.23,0,0,0-.573,14.468l.137.232a14.652,14.652,0,0,0,2.386,3.177Zm-13.514-11.727H206.066l27.273-96.575,55.842,33.478,85.2,51.083-.518.845a24.694,24.694,0,0,0-3.382,10.3Zm-161.54-1.991H368.588a26.481,26.481,0,0,1,3.055-9.355L234.621,427.429Zm211.246,1.977-.095-.9a24.83,24.83,0,0,0-2.728-9.2l-.464-.872,146.458-80.457.314,1.241,22.923,90h-1.281Zm-.668-10.159a26.858,26.858,0,0,1,2.455,8.182l162-.164-21.969-86.279Zm-3.723-2.482-.518-.7a24.41,24.41,0,0,0-5.455-5.372l-.75-.532,11.946-19.964L494.8,358.181l.532.532,67.488,67.42-1.159.641Zm-4.091-7.146a26.847,26.847,0,0,1,4.664,4.555l19.009-10.609,124.367-69.425L495.177,361.4ZM375.72,506.9l-.423-.259-42.805-25.828-97.544-58.938.9-.9,66.125-65.7,70.72,125.457,11.1,19.61-.873.491a24.718,24.718,0,0,0-6.573,5.455Zm-36.274-24.218h.1l35.864,21.6a26.733,26.733,0,0,1,5.687-4.705l-10.841-19.091-68.715-121.9-63.356,62.947Zm67.12,17.727-.819-.395a24.157,24.157,0,0,0-6.954-2.127l-.859-.123V331.672l94.979,23.878-.409.668Zm-6.628-4.35a25.659,25.659,0,0,1,5.85,1.773l84.167-141.058-89.893-22.61ZM385.4,499.594,304.631,355.141l1.241-.328,90.166-24.137V497.548h-1a24.686,24.686,0,0,0-8.837,1.664Zm-77.73-143.185,78.684,140.717a26.689,26.689,0,0,1,7.746-1.473V333.2Z" transform="translate(-78.454 24.648)"/><polygon class="cls-2" points="134.117 545.733 132.699 545.024 133.585 543.238 134.99 543.947 134.117 545.733"/><polygon class="cls-2" points="192.986 574.521 144.058 550.588 144.931 548.788 193.859 572.734 192.986 574.521"/><path class="cls-2" d="M175.22,542.154l-1.773-.914,3.75-7.418a1.1,1.1,0,0,0,0-1.05c0-.068-.15-.205-.273-.205H98.8v9.192h-2v-11.2h80.129a2.347,2.347,0,0,1,1.978,1.172,3.1,3.1,0,0,1,.109,2.987Z" transform="translate(-78.454 24.648)"/><path class="cls-2" d="M182.215,564.655a4.91,4.91,0,1,1,4.91-4.91,4.909,4.909,0,0,1-4.91,4.91Zm0-7.828a2.919,2.919,0,1,0,2.919,2.919h0A2.919,2.919,0,0,0,182.215,556.827Z" transform="translate(-78.454 24.648)"/><rect class="cls-2" x="97.843" y="555.225" width="26.687" height="1.991"/><polygon class="cls-2" points="110.021 623.381 108.03 623.381 108.03 565.057 106.285 562.357 106.285 555.634 108.275 555.634 108.275 561.77 110.021 564.47 110.021 623.381"/><polygon class="cls-2" points="99.425 623.381 97.434 623.381 97.462 565.534 100.898 557.938 102.712 558.77 99.425 566.039 99.425 623.381"/><rect class="cls-2" x="94.107" y="585.675" width="1.991" height="37.733"/><polygon class="cls-2" points="121.844 584.025 119.853 584.025 119.853 565.466 124.721 559.616 126.262 560.897 121.844 566.189 121.844 584.025"/><rect class="cls-2" x="108.439" y="564.825" width="12.996" height="1.991"/><path class="cls-2" d="M219.375,540.777h-8.509v-1.991h7.91a14.512,14.512,0,0,0,4.091-4.228,1.7,1.7,0,0,0,.245-1.363,2.876,2.876,0,0,0-1.2-1.364h-13.5V529.84h14.21a4.913,4.913,0,0,1,2.4,2.727,3.632,3.632,0,0,1-.423,2.987,16.759,16.759,0,0,1-5,5.073Z" transform="translate(-78.454 24.648)"/><path class="cls-2" d="M222.771,559.4H220.78V548.086l.614-.259a3.583,3.583,0,0,0,1.881-1.923,3.42,3.42,0,0,0-.654-2.863,5.044,5.044,0,0,0-3.1-2.1l-1.254-.314.491-1.923L220,539a7.037,7.037,0,0,1,4.3,2.973,4.825,4.825,0,0,1-1.527,7.377Z" transform="translate(-78.454 24.648)"/><rect class="cls-2" x="134.812" y="572.38" width="9.096" height="1.991"/><path class="cls-2" d="M139.192,532.649l-1.528-1.268,8.932-10.7a5.373,5.373,0,0,1,4.091-1.922h49.188v2H150.687a3.355,3.355,0,0,0-2.577,1.2Z" transform="translate(-78.454 24.648)"/><path class="cls-2" d="M148.792,532.649l-1.514-1.282,5.073-6.013a2.888,2.888,0,0,1,2.236-1.05h46.76v2h-46.76a.9.9,0,0,0-.709.327Z" transform="translate(-78.454 24.648)"/><path class="cls-2" d="M139.028,532.567H126.591V517.131l.314-.3c.068,0,6.327-5.7,11.85,0l.273.286Zm-10.446-2h8.455V517.99c-1.118-1.036-4.323-3.3-8.455,0Z" transform="translate(-78.454 24.648)"/><path class="cls-2" d="M143.719,520.117h-6.273v-1.991h5.128l2.85-4.95h3.054v-8.605l-1.063-2.727v-21.41l-2.523-3.5v-6.15l-3.641-3.641H128.01l-3.246,3.245v6.573l-2.632,3.259v17.128l-.5.3c-3.846,2.195-4,5.032-4.009,5.141l.218,5.6a6.191,6.191,0,0,0,4.773,5.877l.791.177v.805a.806.806,0,0,0,.272.641,6.069,6.069,0,0,0,3.8.641h.573l.218,1.977h-.587c-.613.068-3.736.3-5.345-1.132a2.726,2.726,0,0,1-.832-1.364,8.181,8.181,0,0,1-5.659-7.554l-.218-5.66c0-.2.164-3.845,4.514-6.586V479.575l2.631-3.259v-6.709l4.419-4.418h14.877L146.883,470v6.341l2.523,3.5v21.737l1.064,2.727v10.91h-3.9Z" transform="translate(-78.454 24.648)"/><polygon class="cls-2" points="62.783 517.151 49.147 517.151 48.329 514.069 41.946 513.06 42.26 511.096 49.924 512.296 50.674 515.146 61.392 515.146 62.47 512.214 70.502 511.874 70.583 513.865 63.888 514.151 62.783 517.151"/><polygon class="cls-2" points="45.915 534.92 43.924 534.92 43.924 526.397 48.137 526.397 48.137 523.315 65.947 523.315 65.947 526.124 70.543 526.124 70.543 528.115 63.956 528.115 63.956 525.319 50.128 525.319 50.128 528.388 45.915 528.388 45.915 534.92"/><path class="cls-2" d="M172.4,507.258H159.115v-1.991h12.723c1.718-1.077,2.618-2.237,2.645-3.423,0-1.9-2.059-3.641-2.727-4.091H160.124V500.7H147.851v-2H158.2v-2.932h14.237l.259.164c.4.272,3.886,2.727,3.8,6,0,1.963-1.363,3.723-3.845,5.209Z" transform="translate(-78.454 24.648)"/><rect class="cls-2" x="79.979" y="526.738" width="1.991" height="13.528"/><path class="cls-2" d="M147.783,522.394l-1.555-1.24,5.455-6.819h20.7a4.934,4.934,0,0,0,1.65-3.845,5.452,5.452,0,0,0-2.413-3.355l-.491-.3,1.009-1.7.5.3a7.341,7.341,0,0,1,3.368,4.8,7,7,0,0,1-2.5,5.795l-.3.3H152.651Z" transform="translate(-78.454 24.648)"/><path class="cls-2" d="M121.764,485.112H108.877c-.109,0-8.713-.5-8.713-11.1V346.931A6.415,6.415,0,0,0,98.8,342.39a7.24,7.24,0,0,0-5.632-1.977H78.454v-2H93.127a9.109,9.109,0,0,1,7.132,2.728,8.254,8.254,0,0,1,1.882,5.986V474.066c0,8.632,6.5,9.1,6.818,9.109h12.8Z" transform="translate(-78.454 24.648)"/><path class="cls-2" d="M122.9,479.466H111.85a4.226,4.226,0,0,1-3.164-1.282,7.623,7.623,0,0,1-1.6-5.018V348.445c.15-5.032-1.037-8.837-3.5-11.305a11.15,11.15,0,0,0-7.377-3.041H78.454v-1.991H96.209a12.829,12.829,0,0,1,8.809,3.614c2.891,2.877,4.268,7.159,4.091,12.75V473.193a5.81,5.81,0,0,0,1.05,3.614,2.262,2.262,0,0,0,1.718.668h11.046Z" transform="translate(-78.454 24.648)"/></svg>