<svg id="Layer_2" data-name="Layer 2" xmlns="http://www.w3.org/2000/svg" viewBox="0 0 292.7 273.84"><defs><style>.cls-1{fill:#fff;}.cls-2{fill:#00309b;}.cls-2,.cls-3,.cls-4{stroke:#fff;stroke-miterlimit:10;stroke-width:2px;}.cls-3,.cls-4{fill:none;}.cls-3{stroke-dasharray:12;}</style></defs><title>kanghan_pro2</title><rect class="cls-1" x="223.74" y="113.74" width="2.82" height="41.68"/><rect class="cls-1" x="581.249" y="441.319" width="41.68" height="2.82" transform="translate(-634.286 -15.151) rotate(-29.99)"/><rect class="cls-1" x="678.443" y="421.748" width="2.82" height="41.68" transform="translate(-536.966 434.684) rotate(-60)"/><rect class="cls-2" x="659.016" y="576.031" width="41.68" height="2.82" transform="translate(-691.209 41.757) rotate(-29.99)"/><rect class="cls-2" x="600.671" y="556.459" width="2.82" height="41.68" transform="translate(-692.515 434.687) rotate(-60)"/><rect class="cls-1" x="68.2" y="113.74" width="2.82" height="41.68"/><polygon class="cls-2" points="150.1 139.29 74.79 63.98 76.78 61.98 144.65 129.86 119.81 37.14 122.53 36.41 150.1 139.29"/><polygon class="cls-2" points="172.22 232.74 144.65 129.86 219.97 205.17 217.97 207.16 150.1 139.29 174.94 232.01 172.22 232.74"/><polygon class="cls-2" points="122.53 232.74 119.81 232.01 144.65 139.29 76.78 207.16 74.79 205.17 150.1 129.86 122.53 232.74"/><polygon class="cls-2" points="144.65 139.29 172.22 36.41 174.94 37.14 150.1 129.86 217.97 61.98 219.97 63.98 144.65 139.29"/><polygon class="cls-2" points="244.81 162.14 141.93 134.57 244.81 107.01 245.54 109.73 152.82 134.57 245.54 159.42 244.81 162.14"/><polygon class="cls-2" points="49.94 162.14 49.21 159.42 141.93 134.57 49.21 109.73 49.94 107.01 152.82 134.57 49.94 162.14"/><path class="cls-2" d="M667.56,609.16H614.39l-46-26.58-26.58-46V483.37l26.58-46,46-26.59h53.17l46,26.59,26.58,46v53.16l-26.58,46Zm-52.41-2.82H666.8l44.74-25.83,25.82-44.73V484.16l-25.82-44.74L666.8,413.6H615.15l-44.73,25.82-25.79,44.74v51.65l25.83,44.73Z" transform="translate(-493.6 -375.38)"/><circle class="cls-2" cx="147.38" cy="134.57" r="16.57"/><circle class="cls-2" cx="147.38" cy="134.57" r="6.03"/><polyline class="cls-3" points="292.7 233.78 48.2 233.78 48.2 35.37 292.7 35.37"/><polyline class="cls-3" points="3.89 35.37 48.2 35.37 48.2 0"/><polyline class="cls-3" points="0 233.78 48.2 233.78 48.2 273.84"/><line class="cls-3" x1="246.49" x2="246.49" y2="272.77"/><path class="cls-4" d="M612.03,509.95c0-16.55,12.95-29.95,28.95-29.95" transform="translate(-493.6 -375.38)"/><polyline class="cls-4" points="143.99 100.44 148.25 104.7 144.14 108.8"/></svg>